<svg width="413" height="310" viewBox="0 0 413 310" fill="none" xmlns="http://www.w3.org/2000/svg">
<path fillRule="evenodd" clipRule="evenodd" d="M321.5 122C280 122 221.353 155.639 225.5 217.5C230.796 296.5 296.5 309.5 321 309.5C343.5 309.5 412.5 291 412.5 214.5C412.5 142.327 357.5 125.549 321.5 122ZM277 199.5L317.5 159L361.5 199.5L345.5 214.5L330 202V273.5H306.5V202L292.5 214.5L277 199.5Z" fill="#FEBC4B"/>
<path d="M2.5 86.5L163 0L325 86.5L163 171.5L50.5 111.5V255.5H0V205.5H29V103L2.5 86.5Z" fill="#FEBC4B"/>
<path d="M69 145.5V194.5L163 246L206.5 224.5C206.5 208.333 208.3 174.5 215.5 168.5C222.7 162.5 183.5 183.333 163 194.5L69 145.5Z" fill="#FEBC4B"/>
</svg>
