<svg width="712" height="742" viewBox="0 0 712 742" fill="none" xmlns="http://www.w3.org/2000/svg">
<path opacity="0.05" d="M361.358 29.3094C362.053 14.2328 384.777 15.9194 400.395 32.2063C413.458 45.1671 426.2 57.8147 438.62 70.1489C449.693 81.8652 459.787 93.2939 468.902 104.435C475.7 115.078 481.288 125.516 485.666 135.747C487.829 145.712 489.112 155.613 489.515 165.45C488.88 175.32 488.146 185.303 487.314 195.397C487.185 205.86 487.837 216.593 489.271 227.597C492.927 239.279 497.91 251.36 504.219 263.84C513.308 277.205 523.668 291.024 535.299 305.298C548.955 320.508 563.22 336.159 578.095 352.253C593.219 369.136 607.957 386.359 622.308 403.92C634.926 421.997 646.294 440.228 656.414 458.613C663.547 477.093 669.113 495.513 673.113 513.873C674.229 531.864 674.199 549.558 673.023 566.957C670.439 583.565 667.692 599.689 664.783 615.328C662.697 629.851 661.56 643.773 661.371 657.094C663.946 669.18 668.177 680.647 674.066 691.496C683.683 702.131 680.078 725.602 664.577 731.216C651.839 731.233 639.101 728.727 626.364 723.697C613.626 714.478 600.888 703.964 588.151 692.153C575.413 679.767 562.675 668.158 549.938 657.326C537.2 649.902 524.462 644.825 511.725 642.095C498.987 644.524 486.249 649.322 473.512 656.489C460.774 667.158 448.036 678.673 435.299 691.033C422.561 702.938 409.823 713.603 397.086 723.027C384.348 728.34 371.61 731.143 358.873 731.435C346.135 726.662 333.397 719.766 320.66 710.745C307.922 699.02 295.184 686.956 282.447 674.553C269.709 663.583 256.971 654.275 244.234 646.627C231.496 643.623 218.758 643.198 206.021 645.352C193.283 652.279 180.545 661.008 167.808 671.54C155.07 683.857 142.332 696.007 129.595 707.989C116.857 717.594 104.119 725.182 91.3816 730.752C78.644 731.327 65.9063 729.357 53.1686 724.843C37.6671 714.504 26.1183 688.806 32.3111 679.883C38.7057 670.845 45.538 661.292 52.8081 651.223C60.9537 640.014 69.4684 628.203 78.3521 615.791C87.7595 602.178 97.2612 587.99 106.857 573.227C116.282 557.425 125.432 541.172 134.307 524.469C142.307 507.045 149.748 489.363 156.632 471.424C162.297 453.193 167.374 434.928 171.863 416.628C175.365 398.474 178.541 380.505 181.391 362.72C184.034 345.459 186.815 328.546 189.734 311.98C193.407 296.195 197.665 280.848 202.506 265.939C208.797 251.922 215.879 238.344 223.75 225.203C233.105 212.885 243.083 200.933 253.684 189.346C265.074 178.385 276.589 167.656 288.228 157.158C299.497 146.978 310.295 136.876 320.621 126.85C329.488 116.816 337.457 106.701 344.53 96.504C349.688 86.0066 353.937 75.3032 357.276 64.3938C359.559 46.9954 360.92 35.3006 361.358 29.3094Z" stroke="url(#paint0_linear_119_25)" stroke-width="2.5" stroke-linecap="round" stroke-dasharray="7 5"/>
<path opacity="0.1" d="M394.008 45.152C396.022 30.8893 417.809 34.3891 431.399 51.1535C442.341 64.5295 452.786 77.5709 462.734 90.2775C471.156 102.279 478.614 113.919 485.107 125.198C489.477 135.816 492.807 146.139 495.099 156.169C495.601 165.755 495.448 175.2 494.64 184.504C493.175 193.726 491.751 203.013 490.37 212.363C489.831 222.051 490.056 232.019 491.046 242.266C494.093 253.238 498.319 264.645 503.723 276.487C511.543 289.298 520.465 302.621 530.49 316.454C542.24 331.293 554.514 346.607 567.311 362.396C580.332 379.022 593.027 395.987 605.396 413.29C616.293 431.09 626.109 449.044 634.844 467.153C640.947 485.333 645.636 503.459 648.913 521.53C649.496 539.28 648.935 556.792 647.232 574.066C643.937 590.706 640.281 606.975 636.265 622.874C632.516 637.942 629.394 652.573 626.9 666.765C626.523 680.05 627.545 692.884 629.965 705.268C635.486 717.813 627.464 736.996 612.744 736.727C601.002 732.345 589.432 725.919 578.034 717.449C566.871 706.079 555.767 694.059 544.722 681.389C533.623 669.266 522.432 658.281 511.15 648.434C499.56 642.247 487.777 638.297 475.802 636.583C463.449 639.454 450.93 644.31 438.244 651.15C425.317 660.743 412.349 670.876 399.341 681.547C386.395 691.466 373.548 700.162 360.8 707.634C348.38 711.309 336.15 712.727 324.11 711.886C312.444 706.494 300.946 699.17 289.614 689.913C278.49 678.08 267.407 665.812 256.365 653.108C245.242 641.362 234.005 630.933 222.652 621.821C210.98 616.61 199.115 613.682 187.059 613.038C174.615 616.892 162.018 622.62 149.268 630.221C136.307 640.216 123.323 650.545 110.315 661.208C97.404 670.717 84.6073 678.818 71.9247 685.512C59.5881 688.195 47.4405 688.581 35.4818 686.67C21.3527 679.383 12.9482 655.962 20.2264 646.548C27.7548 637.026 35.7399 626.991 44.1816 616.443C53.4773 604.856 63.1099 592.746 73.0794 580.113C83.4609 566.473 93.8899 552.371 104.366 537.808C114.584 522.431 124.507 506.711 134.137 490.647C142.896 474.07 151.123 457.324 158.817 440.408C165.368 423.353 171.38 406.321 176.85 389.313C181.429 372.566 185.706 356.034 189.68 339.718C193.439 324.013 197.305 308.679 201.277 293.715C205.884 279.606 210.986 265.952 216.585 252.753C223.44 240.479 230.99 228.663 239.232 217.306C248.835 206.778 259.019 196.614 269.784 186.813C281.37 177.589 293.146 168.566 305.112 159.745C316.93 151.144 328.419 142.562 339.579 134C349.608 125.274 358.883 116.39 367.404 107.348C374.215 97.8604 380.162 88.0975 385.244 78.0596C389.932 61.7607 392.853 50.7915 394.008 45.152Z" stroke="url(#paint1_linear_119_25)" stroke-width="2.5" stroke-linecap="round" stroke-dasharray="4 1"/>
<path opacity="0.14" d="M423.368 64.074C427.003 50.7956 447.664 55.9427 458.774 72.9083C467.328 86.3893 475.284 99.4948 482.642 112.225C488.432 124.14 493.33 135.639 497.337 146.722C499.5 157.022 500.821 166.974 501.3 176.579C500.417 185.64 499.087 194.517 497.309 203.209C495.231 211.771 493.311 220.378 491.549 229.029C490.73 238.022 490.642 247.296 491.287 256.851C493.804 267.168 497.359 277.934 501.953 289.151C508.638 301.383 516.257 314.14 524.81 327.421C534.823 341.741 545.274 356.536 556.163 371.806C567.242 387.9 578.042 404.334 588.563 421.109C597.829 438.349 606.161 455.732 613.56 473.257C618.666 490.846 622.511 508.382 625.093 525.866C625.18 543.075 624.156 560.082 622.022 576.888C618.162 593.192 613.793 609.21 608.916 624.942C603.817 640.079 599.044 654.91 594.598 669.435C591.622 683.347 589.727 696.964 588.915 710.286C590.503 724.109 578.904 738.454 565.699 732.925C555.431 724.986 545.411 715.584 535.639 704.717C526.139 692.199 516.655 679.609 507.187 666.948C497.485 655.667 487.55 645.743 477.379 637.176C466.596 632.276 455.467 629.419 443.991 628.606C431.84 631.726 419.422 636.451 406.736 642.781C393.694 651.156 380.608 659.821 367.477 668.774C354.51 676.762 341.74 683.56 329.167 689.168C317.187 691.334 305.547 691.486 294.25 689.623C283.626 683.731 273.301 676.105 263.274 666.744C253.655 654.972 244.118 642.7 234.66 629.928C225.121 617.69 215.411 606.455 205.532 596.223C195.102 589.188 184.345 584.109 173.261 580.986C161.474 581.957 149.38 584.769 136.978 589.423C124.109 596.827 111.117 604.937 98.0008 613.753C84.9102 622.469 71.9523 630.376 59.1272 637.474C46.8025 641.67 34.7969 643.984 23.1105 644.415C9.64686 640.41 3.88828 619.989 12.4794 610.058C21.2639 600.09 30.497 589.685 40.1785 578.842C50.6273 567.119 61.3545 554.986 72.3601 542.443C83.6373 529.119 94.9028 515.454 106.157 501.447C117.051 486.839 127.624 471.995 137.876 456.913C147.245 441.49 156.104 425.971 164.453 410.358C171.724 394.727 178.496 379.173 184.767 363.695C190.201 348.528 195.355 333.605 200.228 318.926C204.871 304.887 209.586 291.221 214.372 277.929C219.664 265.506 225.374 253.541 231.503 242.035C238.693 231.458 246.494 221.332 254.907 211.658C264.521 202.805 274.68 194.307 285.384 186.161C296.934 178.577 308.718 171.172 320.738 163.947C332.825 156.889 344.715 149.811 356.409 142.713C367.28 135.379 377.564 127.837 387.261 120.087C395.519 111.789 403.006 103.159 409.722 94.1988C416.876 79.3144 421.425 69.2728 423.368 64.074Z" stroke="url(#paint2_linear_119_25)" stroke-width="2.5" stroke-linecap="round" stroke-dasharray="5 5"/>
<path opacity="0.19" d="M448.75 85.4725C454.175 73.4278 473.541 80.0588 481.86 96.8099C487.903 110.046 493.317 122.863 498.104 135.262C501.404 146.755 503.928 157.801 505.677 168.399C505.919 178.139 505.518 187.515 504.476 196.526C502.484 204.957 500.238 213.206 497.736 221.275C495.222 229.189 492.957 237.164 490.943 245.198C489.924 253.568 489.6 262.233 489.972 271.191C492.029 280.902 494.991 291.073 498.86 301.702C504.507 313.338 510.944 325.488 518.171 338.151C526.61 351.818 535.409 365.949 544.567 380.545C553.884 395.935 562.96 411.64 571.796 427.66C579.572 444.115 586.549 460.694 592.728 477.395C596.908 494.149 599.975 510.851 601.931 527.502C601.61 543.905 600.232 560.128 597.797 576.173C593.581 591.803 588.743 607.212 583.285 622.399C577.207 637.134 571.186 651.667 565.221 665.997C560.098 679.949 555.731 693.737 552.119 707.361C550.122 721.79 536.005 731.186 524.83 721.451C516.287 711.011 507.964 699.696 499.862 687.508C491.909 674.773 483.854 662.42 475.696 650.448C467.048 640.414 458.024 631.827 448.624 624.684C438.336 620.991 427.591 619.091 416.389 618.983C404.345 622.115 391.98 626.498 379.292 632.132C366.247 639.189 353.176 646.329 340.08 653.55C327.279 659.66 314.761 664.651 302.527 668.523C291.088 669.302 280.109 668.312 269.59 665.552C259.969 659.266 250.748 651.443 241.927 642.083C233.669 630.502 225.548 618.384 217.566 605.73C209.543 593.27 201.327 581.54 192.919 570.54C183.865 562.051 174.395 555.196 164.509 549.976C153.692 548.337 142.432 548.422 130.728 550.232C118.297 554.904 105.615 560.535 92.6811 567.124C79.5719 574.431 66.5301 581.459 53.5559 588.207C41.0414 593.167 28.8883 596.741 17.0965 598.927C3.68857 597.87 -0.0103857 580.779 10.031 570.481C20.114 560.33 30.5991 549.84 41.4862 539.01C53.0001 527.535 64.7067 515.759 76.6057 503.683C88.621 491.051 100.546 478.184 112.382 465.081C123.76 451.585 134.784 437.932 145.454 424.122C155.249 410.13 164.54 396.098 173.328 382.025C181.106 368.02 188.415 354.115 195.254 340.312C201.313 326.857 207.104 313.648 212.629 300.685C217.911 288.351 223.231 276.39 228.588 264.802C234.345 254.034 240.439 243.713 246.871 233.837C254.209 224.85 262.067 216.303 270.445 208.195C279.895 200.886 289.85 193.92 300.31 187.297C311.602 181.197 323.172 175.276 335.019 169.532C347.095 163.935 359.098 158.307 371.031 152.647C382.446 146.721 393.435 140.575 403.998 134.208C413.435 127.224 422.221 119.877 430.355 112.168C439.87 99.0257 446.001 90.1273 448.75 85.4725Z" stroke="url(#paint3_linear_119_25)" stroke-width="2.5" stroke-linecap="round" stroke-dasharray="6 6"/>
<path opacity="0.23" d="M469.639 108.634C476.86 98.0633 494.8 105.974 500.201 122.109C503.753 134.749 506.704 146.938 509.053 158.676C510.107 169.462 510.522 179.789 510.297 189.656C508.938 198.681 507.132 207.347 504.879 215.652C502.042 223.416 499.112 231.017 496.09 238.453C493.294 245.786 490.815 253.189 488.653 260.662C487.498 268.505 486.99 276.641 487.13 285.072C488.768 294.262 491.185 303.892 494.38 313.961C499.095 324.989 504.466 336.509 510.492 348.521C517.515 361.481 524.834 374.867 532.451 388.68C540.184 403.224 547.718 418.053 555.053 433.168C561.486 448.677 567.247 464.287 572.337 480C575.715 495.743 578.119 511.427 579.548 527.053C578.941 542.442 577.342 557.666 574.75 572.725C570.407 587.41 565.37 601.911 559.637 616.228C552.991 630.191 546.174 644.008 539.185 657.678C532.479 671.138 526.209 684.518 520.376 697.819C515.375 712.11 499.81 716.974 490.882 704.34C484.058 692.504 477.352 680.318 470.763 667.782C464.055 655.614 457.108 644.13 449.921 633.331C441.95 624.758 433.49 617.597 424.542 611.847C414.508 609.181 403.952 608.025 392.875 608.377C380.901 611.299 368.601 615.138 355.977 619.896C343.047 625.557 330.139 631.143 317.251 636.655C304.785 640.986 292.681 644.28 280.939 646.537C270.138 646.068 259.878 644.065 250.158 640.527C241.504 633.934 233.315 625.999 225.589 616.721C218.57 605.444 211.739 593.614 205.096 581.232C198.484 568.789 191.697 556.834 184.735 545.367C177.11 535.825 169.03 527.587 160.495 520.654C150.894 516.748 140.759 514.389 130.088 513.574C118.44 515.536 106.416 518.586 94.0181 522.723C81.1701 528.148 68.2713 533.706 55.3218 539.396C42.6491 544.319 30.2764 548.369 18.2037 551.547C4.46549 552.698 2.24489 538.859 13.7127 528.584C25.0089 518.644 36.6232 508.47 48.5557 498.061C60.9176 487.23 73.3745 476.204 85.9265 464.985C98.4182 453.417 110.744 441.7 122.903 429.834C134.52 417.724 145.754 405.526 156.605 393.24C166.57 380.863 176.049 368.485 185.042 356.105C193.087 343.839 200.691 331.688 207.855 319.652C214.3 307.956 220.49 296.497 226.424 285.277C232.105 274.651 237.799 264.365 243.506 254.42C249.514 245.253 255.794 236.494 262.344 228.144C269.646 220.637 277.395 213.542 285.592 206.857C294.722 200.934 304.312 195.335 314.362 190.06C325.225 185.297 336.393 180.712 347.867 176.307C359.697 172.054 371.561 167.78 383.459 163.487C395.112 158.935 406.489 154.169 417.59 149.189C427.886 143.6 437.673 137.647 446.95 131.33C458.592 120.193 466.155 112.627 469.639 108.634Z" stroke="url(#paint4_linear_119_25)" stroke-width="2.5" stroke-linecap="round" stroke-dasharray="7 7"/>
<path opacity="0.28" d="M485.733 132.738C494.618 123.915 510.971 132.862 513.525 147.959C514.748 159.69 515.442 170.95 515.609 181.739C514.721 191.607 513.361 201.028 511.527 210.004C508.894 218.2 505.99 226.078 502.814 233.637C499.384 240.734 495.988 247.702 492.627 254.539C487.909 268.544 484.641 283.135 482.823 298.311C484.059 307.021 485.968 316.149 488.551 325.695C492.403 336.146 496.798 347.045 501.734 358.393C507.493 370.597 513.491 383.19 519.729 396.171C526.065 409.798 532.236 423.676 538.245 437.805C543.506 452.259 548.205 466.795 552.34 481.414C555.035 496.038 556.896 510.592 557.925 525.074C557.153 539.317 555.48 553.398 552.907 567.316C548.65 580.878 543.667 594.267 537.958 607.482C531.156 620.387 524.011 633.177 516.523 645.852C508.839 658.373 501.316 670.873 493.953 683.35C486.714 696.855 470.641 697.93 463.841 683.786C458.509 671.575 453.144 659.449 447.747 647.406C441.904 636.34 435.678 626.131 429.07 616.782C421.458 609.701 413.267 603.907 404.497 599.402C394.559 597.533 384.081 596.866 373.061 597.401C361.175 599.879 349.009 602.994 336.563 606.746C323.896 610.972 311.319 615.008 298.832 618.854C286.861 621.52 275.312 623.242 264.185 624.02C254.118 622.441 244.632 619.548 235.729 615.34C227.984 608.538 220.76 600.577 214.058 591.458C208.142 580.557 202.469 569.12 197.04 557.148C191.718 544.913 186.264 532.977 180.676 521.338C174.478 511.091 167.826 501.848 160.72 493.612C152.513 487.844 143.723 483.395 134.348 480.265C123.825 479.686 112.813 480.205 101.311 481.821C89.0931 485.063 76.6788 488.735 64.0681 492.835C51.4434 496.968 39.0027 500.698 26.7462 504.026C12.5746 506.401 11.3189 495.408 24.0243 485.64C36.2915 476.347 48.7641 466.921 61.4422 457.362C74.3367 447.569 87.2245 437.666 100.105 427.651C112.755 417.44 125.17 407.142 137.351 396.759C148.903 386.245 160.056 375.681 170.809 365.064C180.688 354.425 190.105 343.8 199.06 333.189C207.122 322.707 214.778 312.33 222.031 302.06C228.621 292.114 234.975 282.383 241.092 272.866C246.959 263.867 252.819 255.179 258.671 246.803C264.739 239.124 271.026 231.816 277.534 224.879C284.667 218.71 292.172 212.918 300.048 207.504C308.751 202.787 317.869 198.383 327.403 194.29C337.696 190.706 348.312 187.294 359.251 184.055C370.64 181.007 382.144 177.953 393.763 174.895C405.355 171.646 416.815 168.207 428.144 164.577C438.957 160.398 449.411 155.875 459.506 151.009C472.857 142.088 481.6 135.997 485.733 132.738Z" stroke="url(#paint5_linear_119_25)" stroke-width="2.5" stroke-linecap="round" stroke-dasharray="1 1"/>
<path opacity="0.32" d="M496.929 156.939C507.203 150.032 521.887 159.8 521.805 173.499C520.975 184.058 519.723 194.173 518.049 203.844C515.592 212.643 512.814 221.045 509.716 229.05C506.146 236.383 502.452 243.452 498.633 250.256C491.518 263.044 485.166 275.896 479.578 288.811C478.222 295.825 477.399 303.124 477.111 310.707C477.974 318.994 479.404 327.666 481.4 336.724C484.447 346.596 487.944 356.878 491.892 367.57C496.513 379.015 501.333 390.8 506.353 402.925C511.45 415.603 516.416 428.493 521.251 441.594C525.487 454.964 529.266 468.39 532.587 481.872C534.723 495.319 536.154 508.692 536.882 521.99C536.061 535.022 534.447 547.893 532.041 560.601C528.073 572.958 523.393 585.133 517.999 597.126C511.412 608.814 504.375 620.382 496.891 631.83C488.859 643.133 480.747 654.422 472.554 665.696C463.939 677.942 448.134 676.186 443.07 661.767C438.84 650.057 434.407 638.716 429.772 627.743C424.394 618.116 418.52 609.391 412.149 601.568C404.613 595.857 396.469 591.251 387.716 587.751C377.79 586.378 367.357 585.926 356.416 586.394C344.718 588.239 332.797 590.485 320.655 593.134C308.435 595.926 296.357 598.458 284.422 600.731C273.121 601.854 262.276 602.15 251.886 601.618C242.611 599.065 233.945 595.407 225.887 590.643C219.027 583.707 212.708 575.79 206.929 566.892C202.007 556.438 197.365 545.476 193.003 534.007C188.848 522.162 184.614 510.46 180.302 498.901C175.476 488.274 170.235 478.398 164.58 469.275C157.874 462.061 150.57 455.929 142.67 450.88C133.556 448.033 123.873 446.22 113.62 445.441C102.423 446.376 90.8897 447.92 79.0212 450.072C66.8171 452.834 54.6275 455.569 42.4524 458.278C28.0312 460.813 27.4184 452.081 40.9715 443.306C53.8245 435.08 66.7682 426.797 79.8026 418.456C92.8333 410.015 105.763 401.518 118.59 392.965C131.026 384.324 143.183 375.627 155.062 366.875C166.245 358.052 177.025 349.204 187.403 340.331C196.937 331.442 206.039 322.571 214.711 313.718C222.564 304.981 230.057 296.336 237.191 287.782C243.716 279.499 250.031 271.4 256.137 263.485C261.995 256.02 267.832 248.824 273.649 241.896C279.634 235.57 285.796 229.572 292.135 223.902C298.973 218.909 306.132 214.259 313.611 209.952C321.795 206.288 330.347 202.916 339.267 199.835C348.91 197.239 358.864 194.826 369.13 192.594C379.914 190.578 390.873 188.591 402.008 186.632C413.297 184.552 424.563 182.327 435.807 179.957C446.811 177.132 457.589 174.006 468.141 170.579C482.716 163.96 492.312 159.413 496.929 156.939Z" stroke="url(#paint6_linear_119_25)" stroke-width="2.5" stroke-linecap="round" stroke-dasharray="1 5"/>
<path opacity="0.37" d="M503.404 180.446C514.65 175.546 527.57 185.853 525.258 197.895C522.74 207.14 519.916 215.979 516.784 224.413C513.143 232.094 509.314 239.444 505.298 246.464C496.964 258.93 488.916 271.075 481.153 282.9C476.201 295.32 472.526 308.377 470.128 322.074C470.6 329.958 471.552 338.198 472.984 346.794C475.285 356.113 477.955 365.791 480.994 375.829C484.591 386.516 488.351 397.493 492.274 408.759C496.273 420.498 500.18 432.408 503.994 444.488C507.341 456.773 510.327 469.09 512.95 481.439C514.617 493.739 515.711 505.946 516.233 518.061C515.462 529.902 514.003 541.575 511.858 553.079C508.344 564.207 504.163 575.153 499.313 585.918C493.273 596.333 486.723 606.615 479.664 616.764C471.843 626.725 463.776 636.646 455.462 646.527C446.304 657.211 431.223 653.678 427.328 640.039C423.739 629.418 419.79 619.337 415.482 609.795C410.201 601.698 404.36 594.451 397.958 588.052C390.338 583.482 382.121 579.809 373.307 577.032C363.411 575.864 353.078 575.36 342.308 575.519C330.929 576.593 319.406 577.875 307.74 579.365C296.137 580.774 284.735 581.884 273.532 582.693C263.033 582.445 253.007 581.48 243.453 579.798C235.039 576.421 227.229 572.137 220.023 566.946C214.009 559.949 208.541 552.141 203.62 543.52C199.587 533.564 195.861 523.141 192.441 512.251C189.322 500.923 186.182 489.627 183.021 478.364C179.467 467.674 175.57 457.508 171.328 447.866C166.14 439.646 160.387 432.266 154.068 425.726C146.548 421.006 138.429 417.186 129.71 414.267C119.89 412.985 109.626 412.378 98.9177 412.444C87.577 413.46 76.0781 414.706 64.4209 416.182C50.256 417.963 50.0994 410.789 63.9943 403.399C76.9633 396.547 89.9121 389.687 102.841 382.818C115.567 375.928 128.115 369.012 140.484 362.07C152.353 355.074 163.911 348.04 175.159 340.97C185.695 333.838 195.843 326.685 205.603 319.511C214.565 312.311 223.137 305.124 231.319 297.95C238.772 290.848 245.905 283.817 252.717 276.855C259.011 270.116 265.118 263.525 271.039 257.083C276.74 251.001 282.419 245.146 288.075 239.518C293.853 234.405 299.771 229.569 305.827 225.013C312.308 221.059 319.052 217.398 326.059 214.031C333.673 211.255 341.614 208.747 349.881 206.508C358.798 204.734 368.018 203.146 377.543 201.744C387.605 200.588 397.878 199.495 408.362 198.464C419.129 197.396 429.961 196.237 440.859 194.987C451.721 193.405 462.485 191.581 473.152 189.518C488.397 185.162 498.482 182.138 503.404 180.446Z" stroke="url(#paint7_linear_119_25)" stroke-width="2.5" stroke-linecap="round" stroke-dasharray="3 2"/>
<path opacity="0.41" d="M505.466 202.584C517.224 199.627 528.385 210.208 524.3 220.48C520.49 228.35 516.491 235.879 512.304 243.065C503.259 255.535 494.233 267.444 485.225 278.792C477.771 289.675 471.195 300.846 465.498 312.304C463.589 325.895 462.907 340.362 463.452 355.707C465.048 364.486 466.945 373.57 469.143 382.958C471.808 392.904 474.61 403.091 477.549 413.519C480.576 424.334 483.539 435.284 486.438 446.37C488.999 457.605 491.285 468.855 493.294 480.123C494.567 491.309 495.386 502.398 495.751 513.389C495.07 524.096 493.828 534.632 492.026 544.997C489.05 554.978 485.483 564.763 481.326 574.352C476.057 583.562 470.274 592.611 463.978 601.499C456.822 610.13 449.324 618.682 441.484 627.154C432.545 636.249 418.468 631.902 415.103 619.706C411.682 610.518 407.797 601.915 403.446 593.897C398.012 587.243 391.993 581.324 385.389 576.142C377.62 572.412 369.314 569.364 360.473 566.996C350.708 565.792 340.595 565.024 330.135 564.693C319.254 564.892 308.308 565.167 297.297 565.516C286.479 565.635 275.905 565.448 265.573 564.956C256 563.509 246.905 561.461 238.288 558.812C230.769 554.766 223.839 549.988 217.497 544.476C212.308 537.512 207.651 529.88 203.525 521.58C200.274 512.165 197.352 502.343 194.758 492.114C192.544 481.408 190.363 470.662 188.213 459.875C185.816 449.385 183.153 439.237 180.223 429.432C176.508 420.614 172.297 412.421 167.589 404.853C161.76 398.696 155.339 393.275 148.328 388.591C140.181 385.35 131.516 382.761 122.333 380.824C112.3 379.956 101.963 379.464 91.3201 379.349C78 379.7 78.3136 373.387 91.9863 367.627C104.558 362.334 117.02 357.048 129.374 351.769C141.372 346.481 153.142 341.176 164.684 335.855C175.662 330.47 186.323 325.051 196.665 319.598C206.313 314.066 215.604 308.501 224.536 302.904C232.749 297.261 240.619 291.614 248.147 285.964C255.048 280.343 261.681 274.771 268.044 269.247C279.485 258.88 290.663 248.954 301.576 239.471C312.948 232.074 324.833 225.425 337.231 219.523C344.254 217.474 351.559 215.67 359.145 214.112C367.308 213.002 375.751 212.076 384.475 211.335C393.733 210.875 403.217 210.502 412.928 210.216C423 209.987 433.195 209.719 443.515 209.412C453.969 208.895 464.423 208.213 474.876 207.365C490.234 205.12 500.43 203.527 505.466 202.584Z" stroke="url(#paint8_linear_119_25)" stroke-width="2.5" stroke-linecap="round" stroke-dasharray="8 2"/>
<path opacity="0.46" d="M503.658 222.796C515.462 221.586 524.888 232.216 519.505 240.729C514.825 247.251 510.057 253.514 505.203 259.519C495.468 270.205 485.959 280.558 476.677 290.575C469.287 300.687 462.736 311.167 457.025 322.012C454.644 334.968 453.291 348.716 452.967 363.257C453.888 371.493 455.059 379.983 456.48 388.727C458.292 397.945 460.22 407.359 462.262 416.971C464.411 426.895 466.527 436.924 468.609 447.056C470.458 457.299 472.113 467.542 473.573 477.784C474.478 487.928 475.045 497.972 475.276 507.917C474.704 517.589 473.685 527.089 472.222 536.417C469.8 545.361 466.889 554.103 463.489 562.645C459.1 570.786 454.246 578.737 448.929 586.498C442.739 593.945 436.173 601.267 429.229 608.464C421.15 616.065 408.105 611.72 404.697 601.311C401.079 593.635 396.943 586.502 392.289 579.914C386.552 574.475 380.268 569.623 373.437 565.359C365.575 562.175 357.27 559.47 348.52 557.242C339.04 555.777 329.316 554.578 319.348 553.643C309.139 552.953 298.947 552.244 288.773 551.516C278.899 550.482 269.299 549.151 259.972 547.524C251.416 545.09 243.326 542.156 235.7 538.723C229.127 534.184 223.102 529.057 217.624 523.343C213.223 516.486 209.328 509.097 205.94 501.178C203.399 492.346 201.193 483.164 199.323 473.632C197.87 463.645 196.503 453.567 195.221 443.398C193.845 433.341 192.281 423.479 190.528 413.81C188.17 404.796 185.402 396.211 182.225 388.055C178.077 380.929 173.397 374.374 168.184 368.392C161.865 363.571 155.018 359.316 147.646 355.626C139.29 352.968 130.531 350.738 121.369 348.935C109.549 347.476 110.444 341.475 123.31 337.41C135.015 333.684 146.544 329.956 157.896 326.229C168.817 322.471 179.484 318.682 189.899 314.86C199.74 310.959 209.276 307.006 218.507 303.001C227.104 298.894 235.383 294.742 243.346 290.545C250.692 286.263 257.75 281.962 264.518 277.643C276.419 269.089 287.798 260.688 298.657 252.439C308.845 245.315 319.155 238.695 329.586 232.578C341.409 228.538 353.877 225.171 366.991 222.478C374.399 221.873 382.058 221.453 389.969 221.216C398.381 221.286 407.018 221.462 415.879 221.743C425.133 222.158 434.549 222.59 444.126 223.038C453.937 223.4 463.818 223.663 473.769 223.827C488.724 223.41 498.687 223.066 503.658 222.796Z" stroke="url(#paint9_linear_119_25)" stroke-width="2.5" stroke-linecap="round" stroke-dasharray="1 7"/>
<path opacity="0.5" d="M498.605 240.696C510.004 240.984 517.745 251.423 511.603 258.284C501.288 268.406 491.08 278.126 480.978 287.444C472.079 296.342 463.769 305.408 456.049 314.643C450.885 325.274 446.579 336.514 443.13 348.362C442.455 362.53 442.493 377.39 443.245 392.943C444.256 401.434 445.384 410.086 446.628 418.9C447.967 427.962 449.305 437.106 450.642 446.332C451.835 455.63 452.898 464.923 453.83 474.212C454.397 483.391 454.717 492.48 454.79 501.479C454.281 510.216 453.44 518.79 452.268 527.2C450.356 535.247 448.057 543.094 445.37 550.741C441.885 557.974 437.997 565.009 433.707 571.846C428.647 578.313 423.222 584.618 417.431 590.76C410.559 597.135 398.492 593.346 394.626 584.74C385.533 573.052 374.479 563.124 361.463 554.957C345.164 549.735 327.878 545.4 309.605 541.95C291.065 538.729 273.284 534.832 256.263 530.258C242.2 523.031 230.047 514.089 219.804 503.433C213.464 489.274 208.709 473.694 205.537 456.692C204.187 438.056 202.875 419.386 201.601 400.681C198.653 383.479 194.166 367.658 188.139 353.218C178.247 342.247 166.426 333.007 152.676 325.499C142.899 322.198 144.522 316.123 156.125 313.65C166.571 311.346 176.813 309.022 186.854 306.678C196.437 304.248 205.764 301.771 214.835 299.247C223.384 296.603 231.661 293.893 239.664 291.117C253.803 285.128 267.197 278.99 279.846 272.703C290.515 266.253 300.794 259.889 310.683 253.61C320.101 248.157 329.643 243.105 339.31 238.455C350.136 235.521 361.496 233.163 373.39 231.381C387.391 231.445 402.047 231.964 417.36 232.938C425.725 233.816 434.263 234.752 442.974 235.746C451.982 236.762 461.101 237.741 470.331 238.684C484.442 239.757 493.866 240.427 498.605 240.696Z" stroke="url(#paint10_linear_119_25)" stroke-width="2.5" stroke-linecap="round" stroke-dasharray="4 1"/>
<path opacity="0.55" d="M490.971 256.134C501.624 257.586 507.777 267.622 501.316 273.04C490.778 281.374 480.55 289.458 470.633 297.291C461.825 305.253 453.774 313.569 446.479 322.237C440.968 332.097 436.406 342.714 432.792 354.088C430.993 367.092 429.956 380.869 429.682 395.421C430.479 411.218 431.5 427.405 432.747 443.982C433.76 460.777 434.307 477.382 434.387 493.797C432.896 509.301 430.352 524.138 426.755 538.308C420.75 550.93 413.485 562.783 404.96 573.867C399.448 579.342 388.258 576.392 383.745 569.377C373.831 559.71 362.294 551.27 349.135 544.056C333.58 538.655 317.449 533.689 300.743 529.157C284.346 524.393 268.797 518.986 254.098 512.938C242.212 504.762 232.038 495.291 223.575 484.527C218.577 471.142 215.036 456.656 212.955 441.066C212.707 424.089 212.7 406.931 212.932 389.591C212.172 373.003 210.275 357.273 207.241 342.403C201.038 329.93 193.075 318.788 183.353 308.976C175.977 304.11 178.452 297.799 188.467 296.634C205.954 294.258 222.579 291.646 238.343 288.798C252.31 285.339 265.402 281.584 277.619 277.532C288.322 273.001 298.436 268.36 307.962 263.611C316.764 258.957 325.469 254.537 334.078 250.352C342.991 247.013 352.305 244.231 362.02 242.007C372.905 241.105 384.498 240.867 396.798 241.294C410.598 242.922 425.118 244.99 440.358 247.498C456.8 250.443 473.671 253.322 490.971 256.134Z" stroke="url(#paint11_linear_119_25)" stroke-width="2.5" stroke-linecap="round" stroke-dasharray="3 8"/>
<path opacity="0.59" d="M481.465 269.14C491.062 271.362 495.795 280.829 489.404 285.08C479.143 291.868 469.273 298.647 459.794 305.418C451.401 312.64 443.68 320.29 436.631 328.368C431.054 337.618 426.238 347.545 422.185 358.147C419.552 370.146 417.529 382.781 416.116 396.05C415.59 410.323 415.298 424.909 415.239 439.81C415.184 454.892 414.88 469.821 414.327 484.598C412.81 498.603 410.607 512.047 407.72 524.928C403.142 536.42 397.628 547.168 391.177 557.173C386.982 562.032 376.555 560.015 371.439 554.232C360.987 545.982 349.348 538.487 336.521 531.748C322.17 525.971 307.602 520.327 292.819 514.813C278.758 508.854 265.58 502.331 253.285 495.245C243.549 486.553 235.309 476.91 228.566 466.317C224.816 453.842 222.358 440.551 221.192 426.445C221.806 411.203 222.8 395.726 224.173 380.014C225.136 364.552 225.357 349.564 224.836 335.049C221.931 322.031 217.577 309.933 211.774 298.756C206.923 292.789 210.319 286.257 218.579 286.049C232.935 285.325 246.563 284.293 259.465 282.954C270.964 280.938 281.812 278.608 292.009 275.962C301.123 272.823 309.846 269.555 318.178 266.159C326.072 262.776 333.936 259.563 341.771 256.522C349.926 254.131 358.41 252.187 367.222 250.691C376.98 250.292 387.314 250.474 398.224 251.237C410.367 253.118 423.133 255.469 436.521 258.291C451.035 261.771 466.016 265.387 481.465 269.14Z" stroke="url(#paint12_linear_119_25)" stroke-width="2.5" stroke-linecap="round" stroke-dasharray="4 4"/>
<path opacity="0.64" d="M470.658 279.905C479.084 282.518 482.529 291.262 476.444 294.63C466.801 300.254 457.551 306.036 448.692 311.978C440.796 318.561 433.455 325.596 426.667 333.082C421.053 341.652 416.017 350.806 411.562 360.544C408.199 371.435 405.313 382.842 402.904 394.766C401.213 407.497 399.752 420.481 398.519 433.718C397.45 447.122 396.291 460.418 395.042 473.606C393.307 486.214 391.17 498.374 388.631 510.085C385.048 520.646 380.843 530.558 376.014 539.821C372.913 544.322 363.231 543.117 357.74 538.194C347.287 530.821 336.076 523.847 324.105 517.273C311.391 511.075 298.738 504.846 286.146 498.585C274.525 491.829 263.759 484.623 253.848 476.969C246.187 468.153 239.788 458.676 234.652 448.538C232.032 437.101 230.518 425.084 230.111 412.487C231.355 399.03 233.055 385.342 235.21 371.422C237.407 357.47 239.2 343.729 240.59 330.197C240.407 317.492 239.145 305.345 236.803 293.753C234.338 287.256 238.57 280.659 245.112 281.044C256.495 281.335 267.33 281.288 277.617 280.902C286.898 279.848 295.739 278.496 304.14 276.846C311.865 274.735 319.358 272.502 326.618 270.148C333.668 267.779 340.746 265.53 347.853 263.401C355.267 261.771 362.953 260.497 370.913 259.58C379.623 259.548 388.779 260.011 398.38 260.968C408.965 262.923 420.056 265.34 431.653 268.219C450.936 273.932 463.937 277.827 470.658 279.905Z" stroke="url(#paint13_linear_119_25)" stroke-width="2.5" stroke-linecap="round" stroke-dasharray="5 4"/>
<path opacity="0.68" d="M459.064 288.727C466.228 291.414 468.569 299.324 462.998 302.055C454.166 306.832 445.678 311.865 437.534 317.154C430.18 323.156 423.254 329.578 416.754 336.423C411.129 344.223 405.938 352.507 401.181 361.274C397.231 370.97 393.636 381.071 390.396 391.577C387.739 402.723 385.294 414.083 383.058 425.658C381.055 437.387 379.074 449.06 377.117 460.677C374.978 471.904 372.66 482.802 370.162 493.37C367.119 503.078 363.721 512.269 359.967 520.943C357.638 525.222 348.746 524.611 343.257 520.22C333.408 513.366 323.188 506.667 312.596 500.124C301.86 493.641 291.373 487.049 281.134 480.349C271.959 473.214 263.56 465.755 255.938 457.971C250.2 449.4 245.497 440.398 241.827 430.964C240.192 420.68 239.472 410.014 239.667 398.965C241.316 387.301 243.442 375.441 246.045 363.387C249.004 351.185 251.825 339.04 254.507 326.953C256.317 315.23 257.426 303.796 257.831 292.651C257.349 286.183 262.259 279.765 267.27 280.407C276.056 281.175 284.473 281.617 292.521 281.735C306.674 280.075 320.28 277.876 333.341 275.138C346.193 272.347 359.47 270.118 373.173 268.451C380.894 268.697 388.949 269.342 397.338 270.387C406.474 272.283 415.997 274.594 425.907 277.32C442.296 282.865 453.349 286.667 459.064 288.727Z" stroke="url(#paint14_linear_119_25)" stroke-width="2.5" stroke-linecap="round" stroke-dasharray="1 8"/>
<path opacity="0.73" d="M447.007 295.995C452.963 298.486 454.374 305.471 449.396 307.778C441.479 311.952 433.833 316.404 426.456 321.134C419.675 326.538 413.2 332.317 407.031 338.471C401.478 345.391 396.23 352.699 391.288 360.396C386.92 368.811 382.813 377.533 378.968 386.563C375.566 396.1 372.345 405.808 369.306 415.688C366.52 425.738 363.81 435.773 361.176 445.793C358.57 455.587 355.919 465.175 353.224 474.556C350.325 483.362 347.275 491.794 344.072 499.85C342.187 503.907 334.225 503.631 329.176 499.59C320.542 493.084 311.821 486.6 303.013 480.141C294.469 473.605 286.258 466.957 278.381 460.198C271.533 453.107 265.349 445.806 259.828 438.297C255.823 430.289 252.621 422.028 250.22 413.513C249.418 404.474 249.339 395.203 249.983 385.698C251.848 375.809 254.156 365.772 256.908 355.589C260.182 345.236 263.504 334.873 266.871 324.5C269.909 314.224 272.575 304.068 274.869 294.031C275.829 288.068 281.109 282.12 284.893 282.781C297.685 283.692 310 283.904 321.837 283.418C332.976 281.633 344.205 279.846 355.523 278.057C368.108 277.709 381.317 278.152 395.151 279.385C402.945 281.131 411.023 283.222 419.383 285.66C433.054 290.67 442.262 294.115 447.007 295.995Z" stroke="url(#paint15_linear_119_25)" stroke-width="2.5" stroke-linecap="round" stroke-dasharray="4 3"/>
<path opacity="0.77" d="M434.698 302.064C439.514 304.199 440.194 310.213 435.85 312.224C428.88 315.91 422.106 319.854 415.53 324.057C409.351 328.837 403.376 333.909 397.606 339.273C392.248 345.237 387.093 351.489 382.141 358.029C377.574 365.087 373.189 372.381 368.987 379.91C365.101 387.815 361.361 395.858 357.768 404.039C354.399 412.389 351.125 420.751 347.947 429.126C344.883 437.423 341.85 445.61 338.85 453.689C335.85 461.424 332.823 468.932 329.77 476.212C328.084 479.947 321.176 479.79 316.94 476.053C303.204 463.738 290.369 451.219 278.433 438.496C270.024 424.946 263.89 410.869 260.03 396.266C260.819 380.585 263.502 364.465 268.079 347.906C274.813 330.847 281.597 313.777 288.432 296.695C290.242 291.557 295.544 286.324 298.367 286.872C315.616 287.465 330.274 287.377 342.342 286.606C352.494 285.893 362.965 285.506 373.753 285.446C386.009 287.311 398.798 289.933 412.119 293.314C423.312 297.548 430.838 300.465 434.698 302.064Z" stroke="url(#paint16_linear_119_25)" stroke-width="2.5" stroke-linecap="round"/>
<path opacity="0.82" d="M422.188 307.242C425.973 308.945 426.101 313.961 422.405 315.745C410.65 322.616 399.388 330.339 388.618 338.915C378.852 349.158 369.569 360.128 360.769 371.827C352.844 384.605 345.287 397.672 338.097 411.028C331.453 424.384 324.986 437.432 318.696 450.172C317.036 453.443 311.336 453.254 308.18 449.873C298.439 438.664 289.651 427.322 281.814 415.847C276.754 403.96 273.308 391.84 271.476 379.486C272.882 366.673 275.68 353.653 279.871 340.427C285.999 326.921 292.53 313.356 299.465 299.733C301.558 295.593 306.514 291.272 308.688 291.646C316.681 292.458 324.692 292.889 332.722 292.941C341.002 292.688 349.511 292.514 358.248 292.42C367.627 292.978 377.399 294.074 387.566 295.707C404.639 301.076 416.18 304.921 422.188 307.242Z" stroke="url(#paint17_linear_119_25)" stroke-width="2.5" stroke-linecap="round" stroke-dasharray="5 2"/>
<path opacity="0.86" d="M409.411 311.76C412.311 313.018 412.061 317.018 408.992 318.544C399.112 324.286 389.498 330.589 380.15 337.452C371.356 345.382 362.838 353.773 354.598 362.625C346.882 372.193 339.416 381.996 332.202 392.033C325.427 402.241 318.841 412.374 312.444 422.431C310.772 425.098 306.37 424.807 304.339 421.91C298.41 412.36 293.26 402.763 288.89 393.119C286.448 383.359 285.043 373.538 284.674 363.654C286.379 353.646 289.014 343.583 292.578 333.463C297.607 323.248 303.12 313.007 309.117 302.742C311.045 299.609 315.321 296.283 317.039 296.541C330.339 297.498 344.075 298.352 358.247 299.102C366.023 300.004 374.038 301.248 382.293 302.834C395.719 307.043 404.758 310.018 409.411 311.76Z" stroke="url(#paint18_linear_119_25)" stroke-width="2.5" stroke-linecap="round" stroke-dasharray="7 6"/>
<path opacity="0.91" d="M396.228 315.684C398.332 316.534 397.9 319.498 395.488 320.728C387.628 325.166 379.898 329.917 372.298 334.98C364.958 340.615 357.75 346.507 350.673 352.656C343.869 359.223 337.203 365.948 330.675 372.831C324.409 379.909 318.279 387.025 312.285 394.179C310.706 396.098 307.637 395.715 306.623 393.45C302.094 378.685 299.787 363.973 299.702 349.315C304.149 334.758 310.444 320.249 318.589 305.789C320.058 303.584 323.385 301.269 324.746 301.469C335.362 302.712 346.312 304.024 357.595 305.403C376.72 310.192 389.598 313.619 396.228 315.684Z" stroke="url(#paint19_linear_119_25)" stroke-width="2.5" stroke-linecap="round" stroke-dasharray="4 4"/>
<path opacity="0.95" d="M382.53 318.891C383.911 319.404 383.439 321.373 381.742 322.212C370.681 328.428 359.811 335.123 349.13 342.296C338.875 350.241 328.846 358.443 319.045 366.903C317.752 368.07 315.892 367.674 315.615 366.168C314.871 356.392 315.129 346.724 316.391 337.165C319.641 327.813 323.783 318.563 328.816 309.413C329.704 308.033 331.954 306.632 332.944 306.817C340.566 308.18 348.408 309.673 356.468 311.299C369.399 314.903 378.086 317.434 382.53 318.891Z" stroke="url(#paint20_linear_119_25)" stroke-width="2.5" stroke-linecap="round" stroke-dasharray="5 8"/>
<defs>
<linearGradient id="paint0_linear_119_25" x1="32469.1" y1="18.9338" x2="32469.1" y2="71269" gradientUnits="userSpaceOnUse">
<stop stop-color="#1F89DB"/>
<stop offset="1" stop-color="#F42A8B"/>
</linearGradient>
<linearGradient id="paint1_linear_119_25" x1="30999" y1="2610.34" x2="25292" y2="70437.8" gradientUnits="userSpaceOnUse">
<stop stop-color="#1F89DB"/>
<stop offset="1" stop-color="#F42A8B"/>
</linearGradient>
<linearGradient id="paint2_linear_119_25" x1="29580" y1="4996.01" x2="18744.8" y2="68928.7" gradientUnits="userSpaceOnUse">
<stop stop-color="#1F89DB"/>
<stop offset="1" stop-color="#F42A8B"/>
</linearGradient>
<linearGradient id="paint3_linear_119_25" x1="27917.5" y1="7143.67" x2="12585.6" y2="66734.3" gradientUnits="userSpaceOnUse">
<stop stop-color="#1F89DB"/>
<stop offset="1" stop-color="#F42A8B"/>
</linearGradient>
<linearGradient id="paint4_linear_119_25" x1="26060.7" y1="9030.56" x2="6853.31" y2="64068.8" gradientUnits="userSpaceOnUse">
<stop stop-color="#1F89DB"/>
<stop offset="1" stop-color="#F42A8B"/>
</linearGradient>
<linearGradient id="paint5_linear_119_25" x1="24087.5" y1="10655.7" x2="1652.78" y2="60932.4" gradientUnits="userSpaceOnUse">
<stop stop-color="#1F89DB"/>
<stop offset="1" stop-color="#F42A8B"/>
</linearGradient>
<linearGradient id="paint6_linear_119_25" x1="21978.1" y1="11985.7" x2="-3030.04" y2="57368" gradientUnits="userSpaceOnUse">
<stop stop-color="#1F89DB"/>
<stop offset="1" stop-color="#F42A8B"/>
</linearGradient>
<linearGradient id="paint7_linear_119_25" x1="19783" y1="13013.8" x2="-7148.29" y2="53446.5" gradientUnits="userSpaceOnUse">
<stop stop-color="#1F89DB"/>
<stop offset="1" stop-color="#F42A8B"/>
</linearGradient>
<linearGradient id="paint8_linear_119_25" x1="17573.2" y1="13759" x2="-10638.8" y2="49256.6" gradientUnits="userSpaceOnUse">
<stop stop-color="#1F89DB"/>
<stop offset="1" stop-color="#F42A8B"/>
</linearGradient>
<linearGradient id="paint9_linear_119_25" x1="15354.9" y1="14202.6" x2="-13516.4" y2="44855.4" gradientUnits="userSpaceOnUse">
<stop stop-color="#1F89DB"/>
<stop offset="1" stop-color="#F42A8B"/>
</linearGradient>
<linearGradient id="paint10_linear_119_25" x1="13197.9" y1="14383.6" x2="-15719.7" y2="40334.2" gradientUnits="userSpaceOnUse">
<stop stop-color="#1F89DB"/>
<stop offset="1" stop-color="#F42A8B"/>
</linearGradient>
<linearGradient id="paint11_linear_119_25" x1="11083.6" y1="14256.1" x2="-17323" y2="35736.1" gradientUnits="userSpaceOnUse">
<stop stop-color="#1F89DB"/>
<stop offset="1" stop-color="#F42A8B"/>
</linearGradient>
<linearGradient id="paint12_linear_119_25" x1="9056.1" y1="13831.7" x2="-18313.2" y2="31124.3" gradientUnits="userSpaceOnUse">
<stop stop-color="#1F89DB"/>
<stop offset="1" stop-color="#F42A8B"/>
</linearGradient>
<linearGradient id="paint13_linear_119_25" x1="7158.86" y1="13131.8" x2="-18692" y2="26575.3" gradientUnits="userSpaceOnUse">
<stop stop-color="#1F89DB"/>
<stop offset="1" stop-color="#F42A8B"/>
</linearGradient>
<linearGradient id="paint14_linear_119_25" x1="5430.76" y1="12183.8" x2="-18470.6" y2="22165.6" gradientUnits="userSpaceOnUse">
<stop stop-color="#1F89DB"/>
<stop offset="1" stop-color="#F42A8B"/>
</linearGradient>
<linearGradient id="paint15_linear_119_25" x1="3905.4" y1="11020.2" x2="-17671.6" y2="17971.6" gradientUnits="userSpaceOnUse">
<stop stop-color="#1F89DB"/>
<stop offset="1" stop-color="#F42A8B"/>
</linearGradient>
<linearGradient id="paint16_linear_119_25" x1="2610.58" y1="9678.89" x2="-16309.3" y2="14063.4" gradientUnits="userSpaceOnUse">
<stop stop-color="#1F89DB"/>
<stop offset="1" stop-color="#F42A8B"/>
</linearGradient>
<linearGradient id="paint17_linear_119_25" x1="1567.39" y1="8201" x2="-14447.6" y2="10519.7" gradientUnits="userSpaceOnUse">
<stop stop-color="#1F89DB"/>
<stop offset="1" stop-color="#F42A8B"/>
</linearGradient>
<linearGradient id="paint18_linear_119_25" x1="789.921" y1="6631.96" x2="-12137.7" y2="7406.47" gradientUnits="userSpaceOnUse">
<stop stop-color="#1F89DB"/>
<stop offset="1" stop-color="#F42A8B"/>
</linearGradient>
<linearGradient id="paint19_linear_119_25" x1="284.314" y1="5016.23" x2="-9421.64" y2="4782.25" gradientUnits="userSpaceOnUse">
<stop stop-color="#1F89DB"/>
<stop offset="1" stop-color="#F42A8B"/>
</linearGradient>
<linearGradient id="paint20_linear_119_25" x1="49.3307" y1="3399.48" x2="-6388.54" y2="2701.19" gradientUnits="userSpaceOnUse">
<stop stop-color="#1F89DB"/>
<stop offset="1" stop-color="#F42A8B"/>
</linearGradient>
</defs>
</svg>
