<?xml version="1.0" encoding="utf-8"?>
<!-- Generator: Adobe Illustrator 27.0.0, SVG Export Plug-In . SVG Version: 6.00 Build 0)  -->
<svg version="1.1" id="Layer_1" xmlns="http://www.w3.org/2000/svg" xmlns:xlink="http://www.w3.org/1999/xlink" x="0px" y="0px"
	 viewBox="0 0 750 500" style="enable-background:new 0 0 750 500;" xml:space="preserve">
<style type="text/css">
	.st0{fill:#E0E0E0;}
	.st1{fill:#EBEBEB;}
	.st2{fill:#F5F5F5;}
	.st3{opacity:0.3;}
	.st4{fill:#FAFAFA;}
	.st5{fill:#FFFFFF;}
	.st6{fill:#263238;}
	.st7{fill:#FFBE9D;}
	.st8{fill:#EB996E;}
	.st9{fill:#FEBC4B;}
	.st10{fill:#455A64;}
	.st11{fill:#A5695F;}
	.st12{fill:#83534B;}
</style>
<g id="freepik--background-complete--inject-3">
	<path class="st0" d="M94.4,293.5c-0.3-2-0.3-4-0.3-6c-0.1-2,0-4,0.3-6c0.3,2,0.4,4,0.3,6C94.7,289.5,94.6,291.5,94.4,293.5z"/>
	<path class="st0" d="M94.4,317.5c-0.3-4-0.3-8,0-12C94.7,309.5,94.7,313.5,94.4,317.5z"/>
	<path class="st0" d="M94.4,341.5c-0.3-4-0.3-8,0-12C94.7,333.5,94.7,337.5,94.4,341.5z"/>
	<path class="st0" d="M94.4,365.5c-0.3-4-0.3-8,0-12C94.7,357.5,94.7,361.5,94.4,365.5z"/>
	<path class="st0" d="M94.4,389.5c-0.3-4-0.3-8,0-12C94.7,381.5,94.7,385.5,94.4,389.5z"/>
	<path class="st0" d="M104,403.8c-2,0.3-4,0.3-6,0.3c-1.4,0-2.7,0-3.7,0l0,0c-0.1,0-0.2-0.1-0.2-0.2c0,0,0,0,0,0
		c0-0.8,0-1.6,0.2-2.3c0.2,0.8,0.2,1.6,0.2,2.3l-0.2-0.2c1,0,2.3-0.1,3.7-0.1C100,403.5,102,403.6,104,403.8z"/>
	<path class="st0" d="M128,403.8c-2,0.3-4,0.3-6,0.3c-2,0.1-4,0-6-0.3c2-0.3,4-0.3,6-0.3C124,403.5,126,403.6,128,403.8z"/>
	<path class="st0" d="M152,403.8c-2,0.3-4,0.3-6,0.3c-2,0.1-4,0-6-0.3c2-0.3,4-0.3,6-0.3C148,403.5,150,403.6,152,403.8z"/>
	<path class="st0" d="M171.4,403.8c-1.2,0.3-2.5,0.3-3.7,0.3c-1.2,0.1-2.5,0-3.7-0.3c1.2-0.3,2.5-0.3,3.7-0.3
		C169,403.5,170.2,403.6,171.4,403.8z"/>
	<path class="st0" d="M333.1,59.8c2-0.3,4-0.3,6,0C337.1,60.2,335.1,60.2,333.1,59.8z"/>
	<path class="st0" d="M312.4,59.8c3.4-0.3,6.9-0.3,10.3,0C319.3,60.2,315.9,60.2,312.4,59.8z"/>
	<path class="st0" d="M291.7,59.8c3.4-0.3,6.9-0.3,10.4,0C298.6,60.2,295.2,60.2,291.7,59.8z"/>
	<path class="st0" d="M275.4,65.8c-0.3-2-0.3-4-0.3-6l0.3-0.3h2.3l1.9,0.1c0.6,0,1.2,0,1.8,0.2c-0.6,0.1-1.2,0.2-1.8,0.2h-1.9h-1.1
		h-1.2c0.1-0.1-0.3,0.3,0.3-0.3C275.7,61.8,275.6,63.8,275.4,65.8z"/>
	<path class="st0" d="M275.4,89.1c-0.3-1.9-0.3-3.9-0.3-5.8c-0.1-1.9,0-3.9,0.3-5.8c0.3,1.9,0.3,3.9,0.3,5.8
		C275.7,85.2,275.6,87.2,275.4,89.1z"/>
	<path class="st0" d="M275.4,106.7c-0.3-1-0.3-2-0.3-3c-0.1-1,0-2,0.3-3c0.3,1,0.3,2,0.3,3C275.7,104.7,275.6,105.8,275.4,106.7z"/>
	<path class="st0" d="M579.8,146.8c-4,0.3-8,0.3-12,0C571.8,146.4,575.8,146.4,579.8,146.8z"/>
	<path class="st0" d="M603.8,146.8c-4,0.3-8,0.3-12,0C595.8,146.4,599.8,146.4,603.8,146.8z"/>
	<path class="st0" d="M627.8,146.8c-4,0.3-8,0.3-12,0C619.8,146.4,623.8,146.4,627.8,146.8z"/>
	<path class="st0" d="M651.8,146.8c-4,0.3-8,0.3-12,0C643.8,146.4,647.8,146.4,651.8,146.8z"/>
	<path class="st0" d="M675.8,146.8c-4,0.3-8,0.3-12,0C667.8,146.4,671.8,146.4,675.8,146.8z"/>
	<path class="st0" d="M699.3,147.2c0,0-0.1-0.2-0.1-0.5l0.1,0.1c-0.9,0.1-3,0.2-5.5,0.2c-2,0.1-4,0-6-0.3c2-0.3,4-0.3,6-0.3
		c2.5,0,4.6,0.1,5.5,0.2l0,0c0,0,0.1,0,0.1,0.1c0,0,0,0,0,0C699.4,147.1,699.4,147.2,699.3,147.2z"/>
	<path class="st0" d="M699.3,171.2c-0.3-2-0.3-4-0.3-6c-0.1-2,0-4,0.3-6c0.3,2,0.3,4,0.3,6C699.7,167.2,699.6,169.2,699.3,171.2z"/>
	<path class="st0" d="M699.3,195.2c-0.3-2-0.3-4-0.3-6c-0.1-2,0-4,0.3-6c0.3,2,0.3,4,0.3,6C699.7,191.2,699.6,193.2,699.3,195.2z"/>
	<path class="st0" d="M699.3,219.2c-0.3-2-0.3-4-0.3-6c-0.1-2,0-4,0.3-6c0.3,2,0.3,4,0.3,6C699.7,215.2,699.6,217.2,699.3,219.2z"/>
	<path class="st0" d="M699.3,243.2c-0.3-2-0.3-4-0.3-6c-0.1-2,0-4,0.3-6c0.3,2,0.3,4,0.3,6C699.7,239.2,699.6,241.2,699.3,243.2z"/>
	<path class="st0" d="M699.3,267.2c-0.3-2-0.3-4-0.3-6c-0.1-2,0-4,0.3-6c0.3,2,0.3,4,0.3,6C699.7,263.2,699.6,265.2,699.3,267.2z"/>
	<path class="st0" d="M687.9,279.8c2-0.3,4-0.4,6-0.3c2.4,0,4.5,0.1,5.5,0.1l-0.1,0.1c0-0.3,0.1-0.5,0.1-0.5s0.1,0.2,0.1,0.5
		c0,0.1,0,0.1-0.1,0.1l0,0c-0.9,0.1-3,0.2-5.5,0.2C691.9,280.1,689.9,280,687.9,279.8z"/>
	<path class="st0" d="M663.9,279.8c4-0.3,8-0.3,12,0C671.9,280.1,667.9,280.1,663.9,279.8z"/>
	<path class="st1" d="M638.6,120.6L641,160c0.1,1.4,1.3,2.5,2.7,2.5h71c1.5,0,2.7-1.2,2.7-2.7v-30.7c0-1.5-1.2-2.7-2.7-2.7
		l-43.7,0.3c-0.7,0-1.4-0.3-1.9-0.8l-7.6-7.5c-0.5-0.5-1.2-0.8-1.9-0.8h-18.4c-1.5,0-2.7,1.2-2.7,2.7
		C638.6,120.5,638.6,120.5,638.6,120.6z"/>
	<rect x="639.8" y="121.8" class="st2" width="77.6" height="46.3"/>
	<path class="st1" d="M633.6,126l5.9,48.3c0.1,0.9,0.8,1.5,1.7,1.5h75.6c0.9,0,1.6-0.7,1.7-1.6l3.8-48.3c0.1-0.9-0.6-1.8-1.6-1.8
		c0,0-0.1,0-0.1,0h-85.3c-0.9,0-1.7,0.8-1.7,1.7C633.6,125.9,633.6,125.9,633.6,126z"/>
	<path class="st1" d="M79.8,87.4c6.8-3,11.2-9.8,11.1-17.2c0-10.3-7.7-18.7-17.4-18.7S56,59.7,55.9,70c-0.1,7.5,4.2,14.4,11.1,17.4
		c-26.9,4-25.7,33.2-25.7,33.2l63.5,0.3C104.9,120.9,106.4,91.4,79.8,87.4z"/>
	<path class="st2" d="M608.4,63.1c5.1-2.2,8.3-7.3,8.2-12.8c0-7.6-5.8-13.8-12.9-13.9s-13,6.1-13,13.8c-0.1,5.6,3.2,10.7,8.3,12.9
		c-20,3-19,24.7-19,24.7l47.2,0.2C627.1,88.1,628.2,66.1,608.4,63.1z"/>
	<path class="st2" d="M171.8,55.7c3.2-1.4,5.3-4.6,5.2-8.1c0.3-4.5-3.1-8.5-7.6-8.9c-4.5-0.3-8.5,3.1-8.9,7.6c0,0.4,0,0.8,0,1.1
		c-0.1,3.5,2,6.8,5.2,8.2c-12.7,1.9-12.1,15.7-12.1,15.7l30,0.1C183.7,71.5,184.3,57.6,171.8,55.7z"/>
	<path class="st2" d="M431.9,439.4c4.1-1.8,6.8-6,6.8-10.5c0-6.3-4.7-11.4-10.6-11.4s-10.6,5-10.7,11.3c-0.1,4.6,2.6,8.7,6.8,10.6
		c-16.4,2.5-15.6,20.2-15.6,20.2l38.7,0.2C447.2,459.8,448.1,441.8,431.9,439.4z"/>
	<rect x="613.3" y="368.2" class="st2" width="93.8" height="90.8"/>
	<polygon class="st0" points="620.5,451.2 646.5,404.5 667.7,434.3 680.6,418.5 699.8,451.2 	"/>
	<path class="st0" d="M676.8,395.4c0,3.7-3,6.8-6.8,6.8s-6.8-3-6.8-6.8c0-3.7,3-6.8,6.7-6.8c0,0,0,0,0,0
		C673.7,388.6,676.8,391.7,676.8,395.4z"/>
	<g class="st3">
		<path class="st0" d="M699.8,451.4c0-0.1,0-0.2,0-0.4c0-0.3,0-0.6,0-1.1c0-1,0-2.3,0-4.1c0-3.6,0-8.8-0.1-15.4
			c0-13.3-0.1-32.1-0.2-54.8l0.4,0.4l-79.3,0.1c-0.1,0.1,0.8-0.9,0.4-0.4v20.4c0,6.7,0,13.2,0,19.5c0,12.7,0,24.7,0,35.8l-0.4-0.4
			l57.3,0.2l16.2,0.1h4.3h1.1L699.8,451.4c0-0.1-0.1-0.1-0.2-0.1h-1.1h-4.2l-16.1,0.1l-57.6,0.2h-0.4v-0.4c0-11.1,0-23.1,0-35.8
			c0-6.4,0-12.9,0-19.5v-20.2c-0.4,0.4,0.5-0.6,0.5-0.5l79.3,0.1h0.4v0.4c-0.1,22.8-0.1,41.7-0.2,55c0,6.6-0.1,11.8-0.1,15.3
			c0,1.7,0,3.1,0,4c0,0.4,0,0.8,0,1C700,451.2,699.9,451.3,699.8,451.4z"/>
	</g>
	<rect x="28.5" y="303.4" class="st1" width="39.9" height="38.6"/>
	<polygon class="st0" points="31.6,338.7 42.6,318.8 51.7,331.5 57.2,324.8 65.3,338.7 	"/>
	<path class="st0" d="M55.5,314.9c0,1.6-1.3,2.9-2.9,2.9s-2.9-1.3-2.9-2.9c0-1.6,1.3-2.9,2.9-2.9c0,0,0,0,0,0
		C54.2,312.1,55.5,313.3,55.5,314.9C55.5,314.9,55.5,314.9,55.5,314.9z"/>
	<g class="st3">
		<path class="st0" d="M65.3,338.8c0-0.1,0-0.1,0-0.2c0-0.1,0-0.3,0-0.5c0-0.4,0-1,0-1.7c0-1.5,0-3.7,0-6.6c0-5.6,0-13.7-0.1-23.3
			l0.2,0.2H31.7l0.2-0.2l0,0v8.6c0,2.8,0,5.6,0,8.3c0,5.4,0,10.5,0,15.2l-0.2-0.2l24.4,0.1H63h1.8l0,0H63h-6.8L31.6,339h-0.2v-0.2
			c0-4.7,0-9.8,0-15.2c0-2.7,0-5.5,0-8.3v-8.6l0,0l0.2-0.2h33.7h0.2v0.2c0,9.7-0.1,17.8-0.1,23.4c0,2.8,0,5,0,6.5c0,0.7,0,1.3,0,1.7
			c0,0.2,0,0.3,0,0.4C65.4,338.7,65.4,338.8,65.3,338.8z"/>
	</g>
	<path class="st2" d="M48.5,374l2.2,36.4c0.1,1.3,1.1,2.3,2.5,2.3h65.6c1.4,0,2.5-1.1,2.5-2.5v-28.4c0-1.4-1.1-2.5-2.5-2.5
		c0,0,0,0,0,0l-40.3,0.3c-0.7,0-1.3-0.3-1.8-0.7l-7-6.9c-0.5-0.5-1.1-0.7-1.7-0.7h-17c-1.4,0-2.5,1.1-2.5,2.4
		C48.5,373.9,48.5,374,48.5,374z"/>
	<rect x="49.5" y="375.2" class="st4" width="71.7" height="42.8"/>
	<path class="st2" d="M43.8,379l5.5,44.7c0.1,0.8,0.8,1.4,1.6,1.4h69.8c0.8,0,1.5-0.6,1.6-1.5l3.5-44.7c0.1-0.9-0.6-1.6-1.5-1.7
		c0,0-0.1,0-0.1,0H45.4c-0.9,0-1.6,0.7-1.6,1.6C43.8,378.9,43.8,378.9,43.8,379z"/>
	<path class="st1" d="M390.9,251.6c-0.1-0.7-0.2-1.3-0.2-2c0-0.8-0.1-1.6-0.3-2.4c-0.1-1.1-0.3-2.1-0.6-3.2
		c-0.7-2.9-1.8-5.6-3.3-8.2c-1.9-3.4-4.5-6.3-7.6-8.7c-8-6.4-18.8-8.2-28.5-4.9c-2.8,0.9-5.4,2.2-7.7,3.9c-1.2,0.9-2.4,1.8-3.5,2.8
		c-1.1,1.1-2.1,2.2-3,3.4c-8,10.4-8.4,24.8-0.9,35.5c0.9,1.2,1.8,2.4,2.9,3.6c1,1.1,2.2,2.1,3.3,3c2.3,1.8,4.8,3.3,7.5,4.3
		c5,2,10.5,2.6,15.8,1.8c4.6-0.7,9.1-2.5,12.9-5.3c3.2-2.2,5.9-5.1,8-8.4c1.6-2.5,2.9-5.2,3.7-8c0.3-1,0.6-2.1,0.8-3.1
		c0.2-0.8,0.3-1.6,0.4-2.3C390.6,252.9,390.7,252.2,390.9,251.6c0.1,0.6,0.1,1.3,0,1.9c0,0.8-0.1,1.6-0.2,2.4
		c-0.1,1.1-0.3,2.2-0.6,3.2c-0.7,2.9-1.9,5.7-3.5,8.3c-4.7,7.7-12.5,13-21.5,14.5c-5.6,0.9-11.3,0.4-16.6-1.7
		c-2.9-1.1-5.5-2.6-7.9-4.5c-2.5-1.9-4.8-4.2-6.6-6.8c-8-11.3-7.6-26.6,0.9-37.5c1-1.3,2.1-2.5,3.2-3.6c1.2-1.1,2.4-2.1,3.7-3
		c2.5-1.8,5.2-3.1,8.1-4.1c5.4-1.8,11.1-2.1,16.6-0.9c8.8,1.9,16.4,7.6,20.7,15.5c1.5,2.6,2.5,5.5,3.1,8.5c0.2,1.1,0.4,2.2,0.5,3.3
		c0.1,0.8,0.1,1.6,0.1,2.4C391,250.3,391,251,390.9,251.6z"/>
	<path class="st1" d="M384.7,232.3c0.1,0.1-0.5,0.6-1.6,1.4l-2,1.4c-0.4,0.3-0.8,0.6-1.3,0.9l-1.5,0.8c-5.5,3.2-11.8,4.7-18.2,4.6
		l-2.8-0.1l-2.6-0.4c-0.4-0.1-0.9-0.1-1.3-0.2l-1.2-0.3c-0.8-0.2-1.6-0.4-2.4-0.7c-2.7-0.9-5.3-2.1-7.7-3.6c-4.1-2.5-6.2-4.8-6-4.9
		s2.4,1.7,6.6,3.9c2.4,1.3,5,2.3,7.6,3.1c0.7,0.2,1.5,0.4,2.3,0.6l1.2,0.3l1.2,0.2l2.5,0.4l2.6,0.1c6.1,0.1,12.1-1.2,17.6-3.9
		l1.5-0.7c0.5-0.2,0.9-0.5,1.3-0.7l2.1-1.2C384,232.5,384.6,232.2,384.7,232.3z"/>
	<path class="st1" d="M335.3,269.9c-0.1-0.1,0.5-0.6,1.6-1.4l2-1.4c0.4-0.3,0.8-0.6,1.3-0.9l1.5-0.8c5.5-3.2,11.8-4.7,18.2-4.6
		l2.8,0.1l2.6,0.4c0.4,0.1,0.9,0.1,1.3,0.2l1.2,0.3c0.8,0.2,1.6,0.4,2.4,0.7c2.7,0.9,5.3,2.1,7.7,3.5c4.1,2.5,6.1,4.8,6,4.9
		s-2.4-1.7-6.6-3.9c-2.4-1.3-5-2.3-7.6-3.1c-0.7-0.2-1.5-0.4-2.3-0.6l-1.2-0.3l-1.2-0.2l-2.5-0.4l-2.6-0.1
		c-6.1-0.1-12.1,1.2-17.6,3.9l-1.5,0.7c-0.5,0.2-0.9,0.5-1.3,0.7l-2.1,1.2C336,269.7,335.4,270,335.3,269.9z"/>
	<path class="st1" d="M390.9,252.3c0,0.5-13.9,0.5-30.9,0.1s-30.9-1.1-30.9-1.6s13.9-0.5,30.9-0.1S390.9,251.9,390.9,252.3z"/>
	<path class="st1" d="M358.6,281.7c-0.5,0-0.5-13.8-0.1-30.9s1.1-30.9,1.6-30.9s0.5,13.8,0.1,30.9S359,281.7,358.6,281.7z"/>
	<path class="st1" d="M358.6,281.7c-0.1,0.2-3.5-2.1-7.4-7.4c-2.3-3.1-4.2-6.4-5.5-10c-1.7-4.4-2.5-9.1-2.4-13.8
		c0.1-4.7,1.2-9.4,3.1-13.7c1.6-3.5,3.6-6.8,6-9.7c4.1-5,7.6-7.2,7.7-7.1s-2.9,2.7-6.8,7.8c-2.2,3-4.1,6.2-5.5,9.6
		c-1.8,4.1-2.7,8.6-2.9,13.1c-0.1,4.5,0.7,9,2.2,13.3c1.3,3.5,2.9,6.8,5,9.9C355.7,278.9,358.7,281.5,358.6,281.7z"/>
	<path class="st1" d="M360.8,220c0.1-0.2,3.5,2.1,7.5,7.4c2.3,3.1,4.1,6.4,5.5,10c1.7,4.4,2.5,9.1,2.4,13.8
		c-0.1,4.7-1.2,9.4-3.1,13.7c-1.6,3.5-3.6,6.8-6,9.7c-4.2,5-7.6,7.3-7.7,7.1s2.9-2.7,6.8-7.8c2.2-3,4.1-6.2,5.5-9.6
		c1.8-4.1,2.7-8.6,2.9-13.1c0.1-4.5-0.7-9-2.2-13.3c-1.2-3.5-2.9-6.8-5-9.9C363.6,222.8,360.6,220.2,360.8,220z"/>
</g>
<g id="freepik--character-4--inject-3">
	<rect x="432.6" y="243.7" class="st5" width="227.6" height="169"/>
	<path class="st6" d="M660.2,412.7c0-1.8-0.1-66.7-0.2-169l0.2,0.2H432.6l0,0l0.3-0.3c0,60.7,0,118.2,0,169l-0.2-0.2L660.2,412.7
		l-227.5,0.2h-0.2v-0.2c0-50.8,0-108.3,0-169v-0.3h0.3h227.5h0.2v0.2C660.3,346,660.2,410.9,660.2,412.7z"/>
	<path class="st0" d="M660.2,268.7c0,0.1-50.8,0.3-113.5,0.3s-113.5-0.1-113.5-0.3s50.8-0.3,113.5-0.3S660.2,268.6,660.2,268.7z"/>
	<path class="st0" d="M446.4,256.1c0,1.9-1.5,3.4-3.4,3.4c-1.9,0-3.4-1.5-3.4-3.4c0-1.9,1.5-3.4,3.4-3.4c0,0,0,0,0,0
		C444.9,252.7,446.4,254.2,446.4,256.1L446.4,256.1z"/>
	<path class="st0" d="M456.8,256.1c0,1.9-1.5,3.4-3.4,3.4c-1.9,0-3.4-1.5-3.4-3.4c0-1.9,1.5-3.4,3.4-3.4c0,0,0,0,0,0
		C455.2,252.7,456.8,254.2,456.8,256.1z"/>
	<path class="st0" d="M467.1,256.1c0,1.9-1.5,3.4-3.4,3.4c-1.9,0-3.4-1.5-3.4-3.4c0-1.9,1.5-3.4,3.4-3.4c0,0,0,0,0,0
		C465.6,252.7,467.1,254.2,467.1,256.1L467.1,256.1z"/>
	<path class="st0" d="M555.4,231.1c-1.1-2.3-3.5-3.6-6-3.3c-2.9-2.4-7-2.5-10-0.3c-3.3-2.2-7.8-1.3-10,2c-0.7,1-1.1,2.1-1.2,3.3
		c-3.2-0.8-6.5,1.2-7.2,4.5c-0.5,1.9,0.1,4,1.4,5.4c-3.1,0.8-4.9,4-4.1,7.1c0.7,2.7,3.2,4.5,6,4.3l29.7-16.3
		C555.8,236.1,556.4,233.4,555.4,231.1z"/>
	<path class="st7" d="M523.4,254.9c1.7-12.7,12.8-22,25.6-21.4l1.3,0.1c13.7,1.5,20.1,14,18.2,27.6l-4.3,45.7L564,309l-32,4.8
		l0.6-11.7c0,0-13.1-2.7-12.6-15.9C520.2,279.9,521.8,266.7,523.4,254.9z"/>
	<path class="st8" d="M532.5,302.1c6.1,0.3,12.2-1.2,17.6-4.2c0,0-4.5,9.3-17.7,7.5L532.5,302.1z"/>
	<path class="st6" d="M526.2,267.7c-0.1,1,0.7,1.9,1.7,2c1,0.1,1.9-0.6,2-1.6c0,0,0,0,0,0c0.1-1-0.7-1.9-1.7-2
		C527.2,266,526.3,266.7,526.2,267.7C526.2,267.7,526.2,267.7,526.2,267.7z"/>
	<path class="st6" d="M525.9,261.5c0.2,0.3,1.7-0.7,3.7-0.6s3.5,1.2,3.7,1s-0.1-0.6-0.7-1.1c-0.9-0.7-1.9-1-3-1.1
		c-1.1-0.1-2.1,0.2-3,0.8C526,260.9,525.8,261.4,525.9,261.5z"/>
	<path class="st6" d="M544.2,269c-0.1,1,0.7,1.9,1.7,2c1,0.1,1.9-0.6,2-1.6c0.1-1-0.7-1.9-1.7-2C545.2,267.3,544.3,268,544.2,269
		C544.2,269,544.2,269,544.2,269z"/>
	<path class="st6" d="M545.8,262.9c0.2,0.3,1.7-0.7,3.7-0.6s3.5,1.2,3.7,1s-0.1-0.6-0.7-1.1c-0.9-0.6-1.9-1-3-1.1
		c-1.1-0.1-2.1,0.2-3,0.8C546,262.3,545.7,262.8,545.8,262.9z"/>
	<path class="st6" d="M537.7,277.6c-1.1-0.4-2.2-0.6-3.3-0.8c-0.5-0.1-1-0.2-1.1-0.6c0-0.5,0.1-1.1,0.4-1.5l1.7-3.9
		c2.4-5.5,4.2-10.1,4-10.2s-2.4,4.3-4.8,9.8c-0.6,1.4-1.1,2.7-1.7,3.9c-0.4,0.6-0.5,1.3-0.4,2c0.1,0.4,0.4,0.7,0.8,0.8
		c0.3,0.1,0.6,0.1,0.9,0.2C535.5,277.6,536.6,277.6,537.7,277.6z"/>
	<path class="st6" d="M543.6,279.3c-0.3,0-0.5,2.2-2.4,3.6s-4.3,1.1-4.3,1.4c0,0.1,0.5,0.5,1.5,0.5c1.3,0.1,2.6-0.3,3.6-1.1
		c1-0.7,1.7-1.8,1.9-3.1C544,279.8,543.8,279.2,543.6,279.3z"/>
	<path class="st0" d="M545.7,254.9c0.2,0.6,2.2,0.4,4.6,0.8c2.4,0.4,4.3,1.2,4.6,0.7c0.2-0.2-0.2-0.8-0.9-1.3c-2-1.4-4.6-1.8-7-1.1
		C546.1,254.2,545.6,254.6,545.7,254.9z"/>
	<path class="st0" d="M526.9,255.6c0.3,0.5,1.8,0.1,3.4,0.1s3.1,0.5,3.5,0c0.2-0.2,0-0.7-0.7-1.2c-0.8-0.6-1.8-0.9-2.8-0.9
		c-1,0-2,0.2-2.8,0.8C527,255,526.8,255.4,526.9,255.6z"/>
	<path class="st0" d="M524.9,248.9c0,0,3.9-8.1,8-9.8c5-2.1,6.8,3.3,11.4,2.2s9.4-3.1,13.9,0.7c5,4.1,2.4,6.8,2.4,12.6
		c0.1,23.8,4.1,30.8,5.9,19.6c0.2-1.2,3.6-2,4.4-7.2c1-6.7,1.7-14.8,0.4-19.7c-1.1-4.1-3.2-7-7.2-10.2c-6.3-5.2-15.2-5.7-21.3-5.4
		S524.9,238.5,524.9,248.9z"/>
	<path class="st7" d="M565.8,273.9c0.2-2,1.9-3.4,3.9-3.3c0.1,0,0.1,0,0.2,0c2.5,0.4,5.1,1.9,4.7,7c-0.7,9-9.7,6.4-9.6,6.2
		S565.5,277.7,565.8,273.9z"/>
	<path class="st8" d="M567.2,280.5c0,0,0.2,0.1,0.4,0.3c0.4,0.2,0.8,0.2,1.2,0.1c1-0.3,1.9-1.7,2.1-3.3c0.1-0.8,0-1.6-0.3-2.3
		c-0.1-0.6-0.5-1.1-1.1-1.3c-0.4-0.2-0.8,0-1,0.4c-0.1,0.2-0.1,0.4-0.2,0.4s-0.2-0.2-0.1-0.5c0.1-0.2,0.2-0.4,0.4-0.5
		c0.3-0.2,0.6-0.2,0.9-0.1c0.7,0.2,1.3,0.8,1.5,1.5c0.3,0.8,0.4,1.7,0.3,2.6c-0.2,1.8-1.3,3.4-2.6,3.7c-0.5,0.1-1,0-1.4-0.4
		C567.2,280.8,567.1,280.6,567.2,280.5z"/>
	<path class="st0" d="M566.5,256.4c-1.2,0.8-2.5,1.4-3.9,1.6c-1.5,0.1-2.8-0.8-3.2-2.2c-0.1-0.6,0.1-1.4-0.3-1.9s-1.4-0.5-2.2-0.4
		c-2.7,0.1-5.2-1.8-5.8-4.4c-0.7,1-2.3,0.9-3.3,0.1c-0.9-0.8-1.7-1.7-2.3-2.8c-0.7-1-1.8-1.7-3-1.7c-0.7,0.2-1.3,0.3-2,0.3
		c-1.2-0.2-1.7-1.6-1.8-2.8s-0.2-2.6-1.2-3.3s-2.1-0.4-3.2-0.2s-2.5-0.2-2.7-1.3c-0.1-0.6,0.1-1.2,0.5-1.6c1.6-2.2,4.5-2.9,7-1.9
		c1.5-4.1,6-6.3,10.1-4.9c2,0.7,3.6,2.2,4.5,4.1c3.4-2.8,8.5-2.3,11.3,1.1c0.6,0.7,1.1,1.6,1.4,2.5c3.2-0.7,6.3,1.3,6.9,4.5
		c0.3,1.5,0,3-0.8,4.3c1.7,0.9,2.7,2.7,2.8,4.6c-0.1,1.9-2,3.6-3.8,3.1c0.8,1.6,0.2,3.5-1.4,4.4s-3.5,0.2-4.4-1.4"/>
	<path class="st5" d="M572.4,253.2c0,0.6-0.2,1.3-0.7,1.7c-0.5,0.6-1.1,0.9-1.9,1c-0.9,0.1-1.9-0.2-2.5-0.9h0.4
		c-0.5,0.8-1.2,1.5-1.9,2.2c-0.5,0.4-1.1,0.7-1.7,0.9c-0.6,0.2-1.2,0.2-1.8,0.1c-1-0.1-2-0.7-2.5-1.6c-0.3-0.6-0.6-1.2-0.6-1.9
		c-0.1-0.2-0.1-0.5,0-0.7c0,0,0.1,0.2,0.2,0.7c0.2,0.6,0.4,1.2,0.8,1.8c1.3,1.6,3.6,1.9,5.2,0.6c0.1-0.1,0.2-0.1,0.2-0.2
		c0.7-0.6,1.3-1.2,1.8-2l0.2-0.3l0.2,0.2c0.6,0.6,1.4,0.9,2.2,0.8c0.6-0.1,1.2-0.3,1.7-0.8C572,254.3,572.3,253.8,572.4,253.2z"/>
	<path class="st5" d="M556.4,231.7c0,0-0.2,0.1-0.7,0.2c-0.6,0.2-1.1,0.6-1.5,1.1l-0.1,0.2L554,233c-1.1-1.6-2.5-2.9-4.2-3.8
		c-1.1-0.6-2.3-0.9-3.5-0.9c-2.4-0.1-4.8,1-6.3,2.9c-0.6,0.8-1,1.7-1.1,2.7l0,0.3l-0.3-0.1c-1.2-0.4-2.6-0.3-3.8,0.3
		c-0.9,0.5-1.7,1.2-2.2,2.1c-0.4,0.8-0.6,1.7-0.7,2.6c-0.1-0.2-0.1-0.5-0.1-0.8c0-0.7,0.2-1.4,0.5-2c0.5-1,1.3-1.8,2.2-2.3
		c1.3-0.7,2.7-0.8,4.1-0.4l-0.3,0.2c0.2-1.1,0.6-2.1,1.2-2.9c1.6-2.1,4.1-3.3,6.7-3.1c1.3,0.1,2.6,0.4,3.7,1.1
		c1.7,0.9,3.2,2.3,4.2,4H554c0.4-0.5,1-0.9,1.7-1.1C555.9,231.7,556.1,231.7,556.4,231.7z"/>
	<path class="st8" d="M546.7,280.7c-0.2,0-0.2-1-0.9-1.8s-1.6-1-1.6-1.1s0.3-0.1,0.7,0c0.5,0.1,1,0.4,1.4,0.9
		c0.4,0.4,0.6,0.9,0.6,1.5C546.8,280.5,546.7,280.7,546.7,280.7z"/>
	<path class="st8" d="M547.6,278.3c-0.1,0.1-0.4-0.3-0.9-0.5s-0.9-0.3-0.9-0.5s0.5-0.3,1.2,0S547.7,278.2,547.6,278.3z"/>
	<path class="st8" d="M557.3,300c0,0,0.1-0.1,0.3-0.2c0.2-0.2,0.2-0.5,0.1-0.8c-0.1-0.4-0.5-0.7-0.8-1.3c-0.1-0.3-0.1-0.7,0.1-1
		c0.2-0.3,0.4-0.5,0.6-0.8c0.7-0.9-1.3-1.6-1-2.7c0-0.4,0.2-0.7,0.5-1c0.2-0.1,0.4-0.2,0.4-0.1c-0.3,0.3-0.5,0.7-0.5,1.1
		c0,0.4,0.3,0.8,0.6,1.1c0.2,0.2,0.4,0.5,0.6,0.8c0.2,0.4,0.1,0.8-0.2,1.1c-0.2,0.2-0.4,0.4-0.6,0.7c-0.1,0.2-0.1,0.4,0,0.6
		c0.2,0.5,0.5,0.8,0.7,1.3c0.1,0.4,0,0.8-0.3,1.1C557.5,300,557.3,300,557.3,300z"/>
	<path class="st8" d="M560.1,299.6c0,0,0-0.1-0.1-0.3c-0.1-0.3-0.3-0.5-0.5-0.8c-0.1-0.2-0.3-0.4-0.4-0.6c-0.1-0.3-0.2-0.6-0.1-0.9
		c0.2-0.6,0.7-1,1-1.5s0.1-0.9-0.3-1.3c-0.2-0.2-0.3-0.4-0.5-0.7c-0.1-0.2-0.1-0.5-0.1-0.7c0.1-0.9,0.8-1.2,0.8-1.1
		c-0.2,0.3-0.4,0.7-0.4,1.1c0,0.4,0.2,0.8,0.6,1.1c0.2,0.2,0.4,0.5,0.5,0.8c0.1,0.4,0.1,0.8-0.1,1.1c-0.4,0.6-0.9,0.9-1,1.4
		c-0.1,0.4,0,0.8,0.3,1.2c0.2,0.3,0.3,0.6,0.4,0.9C560.2,299.5,560.2,299.7,560.1,299.6z"/>
	<path class="st0" d="M582.4,372.6l12,11.6l-3.9-22.1l24.3-7.7c0,0,6.5,30.3,7.6,37.5c2,12.9-0.5,31.2-12.5,32.5
		c-13,1.4-22.8-11.4-29-19.8c-4.8-6.5-12.5-17.8-12.5-17.8L582.4,372.6"/>
	<path class="st0" d="M489.6,353c-3.9,12.3-9.4,14.2-11.5,49.4c-0.4,6.9,1.1,16,7.6,18.3c7.2,2.5,18.3-2,21.8-8v-24.3L489.6,353z"/>
	<path class="st6" d="M505.8,404.4c-0.7-1.8-1.5-3.5-2.4-5.2c-1-1.6-2.1-3.2-3.3-4.6c0.5,0.3,0.9,0.7,1.3,1.1c0.9,1,1.7,2.1,2.4,3.3
		c0.7,1.2,1.3,2.4,1.7,3.7C505.6,403.3,505.7,403.9,505.8,404.4z"/>
	<path class="st0" d="M483.7,367.2c0.2-0.7,12.2-33.4,16-40.6c4.6-8.6,14.2-12.4,20.2-12.7s70,4.7,70,4.7s17.9,4.5,21.6,20.7
		c4.5,20.4,8.2,40.4,8.2,40.4l-32.1,6.9l-3.8-9.5l-60.3,13.5l-14.7-21.8L483.7,367.2z"/>
	<polygon class="st0" points="594.3,320.4 569.2,309.4 566.4,298.6 537.2,312.4 531.1,305.7 528.6,313.3 522.2,315.4 509.6,340.2 
		507.3,397.7 507.5,412.7 593.8,413.2 593.1,388.8 	"/>
	<path class="st0" d="M566.4,298.6c0,0-3.3,1-11.7,5.4c-8.2,4.4-17.5,8.4-17.5,8.4l0.7,13.2l31-15.6"/>
	<polyline class="st0" points="531.1,305.7 537.2,312.4 534,326.6 528.5,313.8 	"/>
	<g class="st3">
		<path d="M537.1,313.9c-0.3,0.2-2,16.3-2,16.3l31.2-18.8L538,325.6L537.1,313.9z"/>
	</g>
	<path class="st9" d="M537.4,412.9c0,0-0.6-23.9-0.1-38.9c0.5-12.3-1.5-43.8-1.5-43.8l-4.1-0.6c-5.2,22.4-8.7,45.1-10.4,68
		l-1.2,15.1"/>
	<path class="st6" d="M586.9,349.5c0.1,0.4,0.2,0.8,0.3,1.3c0.2,0.9,0.4,2.1,0.6,3.5c0.5,3,1.2,7.1,2,11.5s1.5,8.6,1.9,11.6
		c0.2,1.5,0.4,2.7,0.5,3.5c0.1,0.4,0.1,0.9,0.1,1.3c-0.1-0.4-0.2-0.8-0.3-1.3c-0.2-0.9-0.4-2.1-0.6-3.5c-0.5-3-1.2-7.1-2-11.5
		s-1.4-8.6-1.9-11.6c-0.2-1.4-0.4-2.6-0.5-3.5C586.9,350.4,586.9,349.9,586.9,349.5z"/>
	<path class="st6" d="M596.1,322.3c0,0.1-0.8,0.8-2.1,2.1c-3.3,3.4-5.6,7.7-6.6,12.3c-0.4,1.8-0.5,2.9-0.6,2.9c0-0.3,0-0.5,0-0.8
		c0-0.7,0.1-1.4,0.3-2.1c0.9-4.7,3.2-9.1,6.7-12.4c0.5-0.5,1.1-1,1.7-1.4C595.7,322.6,595.9,322.5,596.1,322.3z"/>
	<polygon class="st9" points="537.3,318.7 534.6,317.6 531.9,322.2 531.5,329.6 535.2,330.2 538,325.6 	"/>
	<path class="st6" d="M507.3,340.8c0.1,0,0.2,16.1,0.2,35.9s-0.1,35.9-0.2,35.9s-0.2-16.1-0.2-35.9S507.1,340.8,507.3,340.8z"/>
	<path class="st6" d="M537.5,312.3c0,0-0.6,1-1.6,2.7s-2.3,4-3.5,6.6l-0.3,0.6l-0.2,0.4l-0.2-0.4c-1-2.1-1.9-4.3-2.6-6.6
		c-0.3-0.9-0.5-1.6-0.6-2c-0.1-0.2-0.1-0.5-0.1-0.8c0.1,0,0.4,1,1,2.7c0.8,2.2,1.7,4.4,2.7,6.5h-0.4c0.1-0.2,0.2-0.4,0.3-0.6
		c1.1-2.3,2.3-4.5,3.7-6.6c0.5-0.8,1-1.5,1.3-1.9C537.1,312.7,537.3,312.5,537.5,312.3z"/>
	<path class="st6" d="M569.2,309.4l-0.4,0.3l-1.3,0.7l-4.6,2.4c-3.9,2-9.3,4.9-15.2,8.1c-3.6,1.9-7,3.7-10,5.2l-0.3,0.1v-0.3
		c0-3.9-0.1-7.1-0.1-9.5c0-1.1,0-2,0-2.7c0-0.3,0-0.7,0-1c0.1,0.3,0.1,0.6,0.1,0.9c0,0.7,0.1,1.6,0.1,2.7c0.1,2.4,0.2,5.6,0.2,9.5
		l-0.3-0.2c3-1.5,6.4-3.3,10-5.2c5.9-3.2,11.3-6,15.3-8c2-1,3.6-1.8,4.7-2.3l1.3-0.6C568.9,309.5,569.1,309.4,569.2,309.4z"/>
	<path class="st6" d="M511,319.6c0.1,0-0.4,0.9-1.1,2.3c-0.8,1.8-1.4,3.8-1.8,5.7c-0.4,2-0.5,4-0.4,6c0.1,1.5,0.2,2.5,0.2,2.5
		c-0.1-0.2-0.2-0.4-0.2-0.6c-0.1-0.6-0.2-1.2-0.3-1.8c-0.4-4.1,0.3-8.2,2.2-11.9c0.3-0.6,0.6-1.1,0.9-1.6
		C510.8,319.8,511,319.6,511,319.6z"/>
	<path class="st6" d="M534.5,330.7c-0.1,0.1-0.8-0.2-1.6-0.7s-1.4-1-1.3-1.1s0.8,0.2,1.6,0.7S534.5,330.6,534.5,330.7z"/>
	<path class="st6" d="M535.8,328.9c-1.4-2.4-2.5-5-3.4-7.7C533.8,323.6,535,326.2,535.8,328.9z"/>
	<g class="st3">
		<path d="M553.4,394.6c-0.1-0.7-0.4-1.4-1-1.8c-1-0.7-2.3,0.2-3.4,0.8c-2.8,1.7-6.2,1.6-9.5,1.5c-9.8-0.3-19.5-1.3-29.1-2.8
			c-4.7-0.8-9.5-1.8-13.7-4.1s-7.9-5.9-9.2-10.5l-2.2-1.2c1.8,3.7,1.6,14.3,2.2,18.4s2.4,7,6.4,8.2c1.6,0.4,3.3,0.5,4.9,0.3
			c16.1-0.8,32.3-0.1,48.3-0.9c2.3-0.1,5-0.4,6.2-2.4C554.3,398.6,553.9,396.5,553.4,394.6z"/>
	</g>
	<path class="st6" d="M613.8,403.8c0-0.1-0.1-0.1-0.1-0.2l-0.3-0.6l-0.5-0.9l-0.8-1.1c-1.8-2.5-3.9-4.7-6.2-6.8
		c-2.9-2.7-6.6-5.7-10.7-9.1c-2.1-1.7-4.3-3.5-6.5-5.6c-2.3-2.1-4.5-4.3-6.5-6.7h0.3L570,385.9l-1.7,1.8v-0.3
		c4.7,6.9,9,13.6,13.5,19.2c2.1,2.7,4.4,5.2,6.8,7.6c2.1,2.1,4.3,4.1,6.6,5.9c4.3,3.3,8.7,4.7,11.7,4.6c0.4,0,0.7,0,1.1,0l0.9-0.1
		l0.8-0.1l0.7-0.1l0.9-0.2l0.3,0l-0.3,0.1l-0.9,0.2l-0.7,0.2l-0.8,0.1l-0.9,0.1c-0.3,0-0.7,0-1.1,0c-3,0.1-7.5-1.3-11.9-4.5
		c-2.4-1.8-4.6-3.7-6.7-5.9c-2.4-2.4-4.7-4.9-6.9-7.6c-4.5-5.6-8.9-12.3-13.6-19.2l-0.1-0.1l0.1-0.1l1.7-1.8l12.5-13.1l0.2-0.2
		l0.1,0.2c2,2.4,4.1,4.6,6.4,6.7c2.2,2,4.4,3.9,6.4,5.6c4.1,3.5,7.8,6.5,10.7,9.2c2.3,2.1,4.4,4.4,6.2,6.9c0.3,0.5,0.5,0.9,0.8,1.2
		l0.4,1c0.1,0.2,0.2,0.4,0.3,0.6S613.8,403.8,613.8,403.8z"/>
	<g class="st3">
		<path d="M571.3,391.4l-1.4-0.4c1.2,6.8,4.9,16.3,8.2,22.3h9.8C584.2,408.6,571.3,391.4,571.3,391.4z"/>
	</g>
	<path class="st7" d="M580.5,374.5L560.7,353l-11.8-2.2l-13.4,1.7c-0.3,1.4,0.4,2.7,1.7,3.3l-5,0.3c-0.5,1.5,0.2,3.1,1.7,3.6
		c0.1,0,0.1,0,0.2,0.1l-3.5,0.6c1,2.1,3.2,3.3,5.5,2.9c3.5-0.5,7-0.7,10.5-0.7l7,3.8l-10.4-0.4l-7.5,1.4c0,0-1,1.9,0.7,2.4
		s8.2,0,8.2,0l9.4,3c0,0,3.7,5.2,5,6.6s7.4,4,7.4,4l3,2.7L580.5,374.5z"/>
	<path class="st8" d="M532.2,356c1.3,0.1,2.6,0,3.8-0.1c2.4-0.2,5.7-0.5,9.3-0.9l3.5-0.4h-0.1c2.7,0.8,5,1.4,6.7,1.8
		c0.9,0.3,1.8,0.5,2.7,0.5c-0.8-0.4-1.7-0.8-2.6-1c-1.6-0.5-3.9-1.3-6.6-2.1h-0.1h-0.1l-3.5,0.4c-3.6,0.4-6.9,0.8-9.2,1.1
		C534.7,355.4,533.4,355.7,532.2,356z"/>
	<path class="st8" d="M531.3,360.1c1.2,0,2.3,0,3.5-0.2c2.1-0.2,5.1-0.6,8.4-1.1l3.2-0.5h-0.2c4.7,1.8,8.1,3,8.2,2.9
		s-3.3-1.6-7.9-3.6h-0.1h-0.1l-3.2,0.5c-3.3,0.5-6.2,1-8.3,1.3C533.6,359.5,532.4,359.8,531.3,360.1z"/>
	<path class="st6" d="M481,356.8l10,37.8c0.6,2.1,2.5,3.5,4.6,3.5l51.8-1c2.6,0,4.7-2.2,4.6-4.8c0-0.3,0-0.6-0.1-0.9l-7.6-36.2
		c-0.5-2.2-2.4-3.7-4.6-3.7h-54.6c-2.3,0-4.3,1.8-4.3,4.2C480.9,356,480.9,356.4,481,356.8z"/>
	<path class="st5" d="M514.9,366.7c1.2,0.8,1.5,2.3,0.7,3.5s-2.3,1.5-3.5,0.7c-1.1-0.7-1.5-2.1-0.9-3.3
		C512,366.4,513.6,366,514.9,366.7z"/>
	<path class="st7" d="M477.3,365.1c-1-1.2-1-2.9,0-4.2c1-1.2,2.4-1.9,3.9-1.9c1.5,0,3,0.3,4.4,0.9c1.7,0.7,3.4,1.5,5,2.5
		c1.2,0.6,2.1,1.6,2.5,2.9c0.2,1.3-1.2,2.8-2.3,2.1c1.6,0.7,2.8,2.1,3.2,3.8c0.2,1.6-0.6,2.5-2.2,3c1.3,0.5,1.9,1.9,1.4,3.2
		c-0.7,1.2-2.3,1.7-3.5,1.1c-1.2-0.6-2.3-1.5-3.1-2.6c0.9,1.6,1.2,3.4,0.9,5.2c-3.6-1.3-6.1-4.4-6.6-8.2c-1.7-1.4-2.3-3.8-1.3-5.8
		c-1.6-0.7-2.8-2.3-2.9-4.1"/>
	<path class="st8" d="M491.7,374.3c-0.5-0.4-1-0.7-1.5-1.2c-1.2-1-2.5-1.6-4-2c-0.8-0.2-1.6-0.2-2.4,0c-0.6,0.2-1.2,0.5-1.7,0.9
		c-0.5,0.4-0.9,0.9-1.2,1.5c0,0,0-0.2,0.1-0.5c0.2-0.4,0.5-0.8,0.8-1.2c0.5-0.5,1.2-0.8,1.9-1c0.9-0.2,1.7-0.2,2.6,0
		c1.5,0.4,2.9,1.1,4.1,2.2C490.9,373.4,491.3,373.8,491.7,374.3z"/>
	<path class="st8" d="M491.3,367.6c-0.6-0.2-1.3-0.4-1.8-0.8c-0.6-0.3-1.2-0.6-2-0.9c-0.8-0.3-1.7-0.5-2.5-0.6
		c-0.8-0.2-1.7-0.2-2.6,0c-0.7,0.1-1.3,0.4-1.9,0.8c-0.5,0.4-0.9,0.9-1.2,1.5c0,0,0-0.2,0.1-0.5c0.2-0.5,0.5-0.9,0.9-1.2
		c0.6-0.5,1.3-0.8,2-1c0.9-0.2,1.8-0.2,2.7,0c0.9,0.1,1.7,0.4,2.6,0.7c0.7,0.3,1.4,0.6,2,0.9C490.2,366.9,490.8,367.2,491.3,367.6z"
		/>
</g>
<g id="freepik--character-3--inject-3">
	<rect x="339.5" y="43.3" class="st5" width="227.6" height="166.4"/>
	<path class="st6" d="M567.1,209.6c0-1.8-0.1-65.6-0.2-166.4l0.2,0.2H339.5l0,0l0.3-0.3c0,59.7,0,116.3,0,166.4l-0.2-0.2
		L567.1,209.6l-227.5,0.2h-0.2v-0.2c0-50.1,0-106.7,0-166.4V43h0.3h227.5h0.2v0.2C567.1,144.1,567.1,207.9,567.1,209.6z"/>
	<path class="st0" d="M567.8,67.5c0,0.1-50.8,0.3-113.5,0.3s-113.5-0.1-113.5-0.3s50.8-0.3,113.5-0.3S567.8,67.3,567.8,67.5z"/>
	<path class="st0" d="M354.1,54.9c0,1.9-1.5,3.4-3.4,3.4c-1.9,0-3.4-1.5-3.4-3.4s1.5-3.4,3.4-3.4l0,0
		C352.6,51.4,354.1,53,354.1,54.9z"/>
	<path class="st0" d="M364.4,54.9c0,1.9-1.5,3.4-3.4,3.4c-1.9,0-3.4-1.5-3.4-3.4c0-1.9,1.5-3.4,3.4-3.4c0,0,0,0,0,0
		C362.9,51.5,364.4,53,364.4,54.9z"/>
	<path class="st0" d="M374.7,54.9c0,1.9-1.5,3.4-3.4,3.4c-1.9,0-3.4-1.5-3.4-3.4c0-1.9,1.5-3.4,3.4-3.4c0,0,0,0,0,0
		C373.2,51.4,374.7,53,374.7,54.9z"/>
	<path class="st7" d="M354.3,109.1l1.4-0.9c2.5-1.6,5.9-0.8,7.4,1.7c0.1,0.1,0.1,0.2,0.2,0.3c2.3,4.2,5.2,10.1,5.2,10.1l-6.1,9.6
		l-2,0.1c-2.2,1.4-7.4-1.4-10.9-3.6s-1.8-4.2-1.8-4.2c-2.2-3,0.8-4.2,0.8-4.2c-1-1.5-0.7-3.5,0.8-4.5c0,0,0.1,0,0.1-0.1"/>
	
		<rect x="312.9" y="82.4" transform="matrix(0.9821 -0.1882 0.1882 0.9821 -15.4042 65.1347)" class="st5" width="44.6" height="62.5"/>
	<path class="st6" d="M319.2,148.6l-0.1-0.3c-0.1-0.2-0.1-0.5-0.2-0.8c-0.1-0.8-0.4-1.9-0.7-3.3c-0.6-2.9-1.4-7.2-2.5-12.6
		c-2.1-10.8-5.1-26.2-8.6-44.4l0-0.2h0.2l43.8-8.4l0,0h0.3v0.3c4.4,23,8.4,44.2,11.7,61.4v0.2H363l-32,6l-8.7,1.6l-2.3,0.4
		C319.5,148.5,319.2,148.5,319.2,148.6l0.8-0.2l2.3-0.5l8.8-1.8L363,140l-0.2,0.2c-3.3-17.2-7.4-38.4-11.8-61.4l0.3,0.2l0,0
		l-43.8,8.4l0.2-0.3c3.4,18.1,6.3,33.4,8.4,44.2l2.3,12.6c0.3,1.5,0.5,2.6,0.6,3.4c0.1,0.4,0.1,0.7,0.2,0.9
		C319.2,148.4,319.2,148.5,319.2,148.6z"/>
	<path class="st6" d="M314.8,101.2c0-0.1,7.2-1.6,16.2-3.4s16.2-3,16.3-2.8s-7.2,1.7-16.2,3.4S314.8,101.4,314.8,101.2z"/>
	<path class="st6" d="M315.6,105.6c0-0.1,7.2-1.7,16.2-3.4s16.2-3,16.3-2.9s-7.2,1.7-16.2,3.4S315.6,105.7,315.6,105.6z"/>
	<path class="st6" d="M316.4,109.9c0-0.1,7.2-1.6,16.2-3.4s16.2-3,16.3-2.8s-7.2,1.7-16.2,3.4S316.4,110.1,316.4,109.9z"/>
	<path class="st6" d="M317.2,114.3c0-0.1,7.2-1.7,16.2-3.4s16.2-3,16.3-2.9s-7.2,1.7-16.2,3.4S317.3,114.4,317.2,114.3z"/>
	<path class="st6" d="M318.1,118.6c0-0.1,7.2-1.6,16.2-3.4s16.2-3,16.3-2.8s-7.2,1.7-16.2,3.4S318.1,118.7,318.1,118.6z"/>
	<path class="st6" d="M318.9,122.9c0-0.1,7.2-1.7,16.2-3.4s16.2-3,16.3-2.9s-7.2,1.7-16.2,3.4S318.9,123.1,318.9,122.9z"/>
	<path class="st6" d="M319.7,127.3c0-0.1,7.2-1.6,16.2-3.4s16.2-3,16.3-2.8s-7.2,1.6-16.2,3.4S319.8,127.4,319.7,127.3z"/>
	<path class="st6" d="M320.6,131.6c0-0.1,7.2-1.6,16.2-3.4s16.2-3,16.3-2.9s-7.2,1.7-16.2,3.4C327.9,130.5,320.6,131.7,320.6,131.6z
		"/>
	<path class="st6" d="M321.4,135.9c0-0.1,7.2-1.6,16.2-3.4s16.2-3,16.3-2.9s-7.2,1.6-16.2,3.4S321.4,136.1,321.4,135.9z"/>
	<path class="st6" d="M345.2,82.2c0.2,0.3,0.3,0.7,0.3,1.1l0.7,3c0.1,0.3,0.1,0.7,0.2,1c0.3,1.3-0.6,2.6-1.9,2.9
		c-1.3,0.3-2.6-0.6-2.9-1.9l-0.1-0.7c-0.1-0.5-0.2-1-0.3-1.4c-0.2-1-0.4-1.9-0.5-2.8c-0.1-0.5-0.2-0.9-0.2-1.3
		c-0.1-0.5-0.2-0.9-0.1-1.4c0.1-0.9,0.5-1.7,1.2-2.3c0.6-0.5,1.3-0.7,2.1-0.7c1.1,0,2.1,0.6,2.7,1.6c0.1,0.3,0.2,0.5,0.3,0.8
		c0,0.2,0,0.3,0,0.3c-0.1-0.3-0.3-0.7-0.5-1c-0.6-0.8-1.5-1.3-2.5-1.3c-0.7,0-1.3,0.2-1.8,0.7c-0.6,0.5-1,1.2-1,2
		c0,0.4,0,0.8,0.1,1.2c0.1,0.4,0.2,0.9,0.3,1.4c0.2,0.9,0.4,1.9,0.5,2.8c0.1,0.5,0.2,1,0.3,1.4l0.1,0.7c0,0.2,0.1,0.4,0.2,0.6
		c0.4,0.7,1.2,1.1,2,1c0.7-0.1,1.4-0.6,1.6-1.3c0.1-0.3,0.1-0.7,0.1-1c-0.1-0.3-0.1-0.7-0.2-1c-0.2-1.2-0.4-2.2-0.5-3
		C345.2,83,345.2,82.6,345.2,82.2z"/>
	<path class="st7" d="M358.3,107.4c-0.3,0-13.3,2-13.3,2c-0.2,1.2,0.5,2.9,3.5,2.9c2.9,0.1,5.5-0.2,5.5-0.2s3.2,6.7,6.4,7.4
		s1.6-6.4,1.6-6.4l0,0L358.3,107.4z"/>
	<path class="st6" d="M507.1,65.1c1.1-2.6,2.3-5.3,2.4-8.2s-1.1-6-3.5-7.3c-2.3-1.2-5.1-0.6-7.5-1.5c-3-1.1-4.9-4.1-6.2-7
		s0.5-4-1.7-6.3c-3-3-4.9-3.5-8.7-1.6c-2.7-1.9-12.1-5.4-14.9-5.5c-4-0.1-8.6,0.2-11.4,3.1c-2.2,2.2-3.6,5.1-6.2,6.7
		c-3.7,2.2-8.4,0.3-12.7,0.5c-0.9-0.1-1.8,0.3-2.3,1.1c-0.2,0.7-0.1,1.5,0.4,2.2l3.3,6.9c-1.8,0.8-4,0.8-5.8-0.1
		c0.2,4.6,2,8.9,5.1,12.3c-0.8-0.4-1.8-0.1-2.2,0.7c0,0,0,0.1-0.1,0.1c-0.3,0.9-0.3,1.9,0,2.8C438,74.6,449,81,459.8,78
		c0.9-0.2,1.8-0.6,2.6-0.9l23.7,1.8c0.7,1.9,2.2,3.3,4.1,3.8c2.6-2,3.1-3.1,3.1-3.1c1.6,1.2,0.4,0.6,1.6,1.2c2.9,1.4,7.3-0.3,8-3.5
		c0.2-1.3,0.7-2.6,1.6-3.6c1.1-0.8,2.2-1.5,3.5-1.9c1.9-1,3.4-2.5,4.3-4.4C510.4,67.4,508.5,66.5,507.1,65.1z"/>
	<path class="st7" d="M490.4,54.9l0.6,49c0.1,8.3-1.5,20.6-14.6,20.1l0,0c-11.4-1.2-14.4-12-14.5-19.8c0-3.7-0.1-6.8-0.1-7.1
		c0,0-12.5-1-13.5-13.3c-0.5-5.9-0.6-18.3-0.5-29.5c0.1-12,9.4-21.9,21.4-22.8l1.2-0.1C483.2,31.2,490.5,42,490.4,54.9z"/>
	<path class="st8" d="M461.7,97.1c5.7-0.4,11.2-2.5,15.7-5.9c0,0-3.3,9.3-15.6,9.1L461.7,97.1z"/>
	<path class="st6" d="M468.8,59.3c0.2,0.2,1.7-0.9,3.7-1s3.6,1,3.8,0.7s-0.1-0.6-0.8-1c-0.9-0.6-2-0.9-3.1-0.9c-1.1,0-2.1,0.4-3,1.1
		C468.9,58.7,468.7,59.2,468.8,59.3z"/>
	<path class="st6" d="M468.4,63.9c0.1,0.9,0.8,1.6,1.7,1.6c0.9,0,1.6-0.7,1.6-1.6c0,0,0,0,0-0.1c0-0.9-0.8-1.6-1.7-1.6c0,0,0,0,0,0
		C469.1,62.3,468.4,63,468.4,63.9C468.4,63.9,468.4,63.9,468.4,63.9z"/>
	<path class="st6" d="M463.6,73.7c-1-0.2-2.1-0.3-3.1-0.3c-0.5,0-1-0.1-1.1-0.4c-0.1-0.5,0-1,0.2-1.5l1.2-3.8
		c1.6-5.4,2.7-9.8,2.5-9.9s-1.7,4.2-3.3,9.6c-0.4,1.3-0.8,2.6-1.1,3.8c-0.3,0.6-0.3,1.3-0.1,1.9c0.2,0.3,0.5,0.6,0.8,0.7
		c0.3,0.1,0.6,0.1,0.8,0.1C461.5,74,462.6,73.9,463.6,73.7z"/>
	<path class="st6" d="M469.7,51.5c0.2,0.5,1.9,0.1,3.8,0.2s3.6,0.5,3.8,0.1c0.1-0.2-0.2-0.6-0.9-1c-1.8-1-4-1.1-5.9-0.2
		C469.9,50.9,469.6,51.3,469.7,51.5z"/>
	<path class="st6" d="M450.1,55.4c0.2,0.4,1.8,0,3.8-0.1s3.6,0.2,3.8-0.2c0.1-0.2-0.2-0.5-0.9-0.8c-0.9-0.4-1.9-0.5-2.9-0.5
		c-1,0-2,0.3-2.9,0.7C450.3,54.8,450,55.2,450.1,55.4z"/>
	<path class="st7" d="M490,64.1c0.2-0.1,8.3-3.1,8.6,5.3s-8.2,7.1-8.2,6.8S490,64.1,490,64.1z"/>
	<path class="st8" d="M492.9,73c0,0,0.1,0.1,0.4,0.2c0.4,0.1,0.7,0.1,1.1,0c0.9-0.4,1.6-1.8,1.5-3.3c0-0.7-0.2-1.4-0.5-2.1
		c-0.2-0.5-0.6-0.9-1.1-1.1c-0.4-0.1-0.7,0.1-0.9,0.4c-0.1,0.2,0,0.4-0.1,0.4s-0.2-0.1-0.1-0.5c0-0.2,0.2-0.4,0.3-0.6
		c0.2-0.2,0.5-0.3,0.8-0.2c0.7,0.1,1.3,0.6,1.6,1.2c0.4,0.7,0.6,1.5,0.6,2.3c0,1.7-0.8,3.3-2,3.7c-0.5,0.2-0.9,0.1-1.4-0.2
		C492.9,73.2,492.8,73,492.9,73z"/>
	<path class="st6" d="M465.6,79.5c-0.1-0.2,1.6-0.7,2.7-2.3c0.5-0.7,0.9-1.4,1.2-2.2c0.2-0.6,0.4-1,0.5-1s0.1,0.4-0.1,1.1
		c-0.2,0.9-0.5,1.7-1.1,2.5c-0.6,0.7-1.3,1.3-2.1,1.7C466.1,79.6,465.6,79.6,465.6,79.5z"/>
	<path class="st6" d="M501.3,50.4c-1.8-3-2.2-6.5-3.1-9.9s-2.8-6.8-6.1-7.9H492c-2.9-1.2-6.5-1.2-8.9,0.8c-0.6-4.4-4.5-7.9-8.7-9
		S463.1,24,459,25.7c-3.2,1.3-6.2,3.9-10,7.8c-1.6,1.6-3,3.4-4.3,5.2L441,50.2c-0.4,0.3-0.8,0.6-1,1c-0.7,1-0.4,2.3,0.6,3
		c0.8,0.5,1.9,0.5,2.6-0.1l0,0c0.4,0.7,0.7,1.3,1,2l0,0l0.1,0.1c0.2,0.4,0.4,0.8,0.6,1.2l0,0l2.9,12.7c0.2-3.5-0.1-15.5,0.1-19
		c5.3-0.2,10.3-2.5,13.8-6.4c1.9-2.1,3.4-4.7,5.9-6c3.3-1.6,7.2-0.4,10.6,0.8l-0.1-0.1c1.8,0.8,3.4,2,4.8,3.4
		c-0.8,6.9-0.1,13.8,2.1,20.4c0.3,1,1.2,3,2.2,3.4c1.9,0.7,2.4-1.2,3.5-2.2c1-0.7,2.2-1,3.5-0.8c0.9-2.9,1.7-5.8,2.3-8.8
		c1.1,0.4,2.4,0.4,3.5,0.2c-0.4-0.9-0.7-1.7-1.1-2.6c0.5,0.3,1,0.6,1.5,0.7c0.6,0.1,1.1-0.1,1.4-0.6
		C502.1,51.8,501.6,51.1,501.3,50.4z"/>
	<path class="st10" d="M479.1,34.9c0.4,0.3,0.8,0.7,1.2,1.1c1,1.2,1.6,2.6,1.9,4.1c0.2,1,0.3,2.1,0.3,3.1c0,1.1-0.1,2.3-0.2,3.6
		c-0.1,1.3-0.1,2.7-0.1,4c0,0.7,0.1,1.4,0.3,2.1c0.1,0.8,0.4,1.5,0.9,2.1c0.4,0.5,1.1,0.7,1.7,0.6c0.6-0.1,1.2-0.4,1.6-0.9
		c0.7-0.9,1.1-2,1.2-3.1h-0.3c0.4,0.9,0.9,1.8,1.5,2.6c0.6,0.7,1.5,1.2,2.4,1.3c0.4,0,0.9,0,1.3-0.2c0.4-0.2,0.7-0.5,0.9-0.8
		c0.2-0.3,0.3-0.7,0.3-1.1c0-0.4-0.1-0.7-0.4-1l-0.1,0.1c0.7,0.8,1.6,1.5,2.6,2c0.3,0.2,0.6,0.3,0.8,0.4c0.1,0,0.2,0.1,0.3,0.1
		c-0.1-0.1-0.2-0.1-0.3-0.1c-0.2-0.1-0.5-0.2-0.8-0.3c-1-0.5-1.8-1.2-2.6-2l-0.1,0.1c0.4,0.5,0.4,1.3,0.1,1.8
		c-0.2,0.3-0.5,0.6-0.8,0.8c-0.4,0.2-0.8,0.2-1.1,0.2c-0.9-0.1-1.7-0.6-2.2-1.2c-0.6-0.8-1.1-1.7-1.4-2.6l-0.2-0.4l-0.1,0.4
		c-0.1,1.1-0.5,2.1-1.1,3c-0.4,0.4-0.9,0.7-1.4,0.8c-0.5,0.1-1.1-0.1-1.5-0.5c-0.4-0.6-0.7-1.2-0.8-1.9c-0.1-0.7-0.2-1.4-0.3-2.1
		c-0.1-1.3,0-2.7,0.1-4c0.1-1.3,0.2-2.5,0.1-3.7c0-1.1-0.1-2.1-0.4-3.2c-0.3-1.5-1-2.9-2-4.1C480.1,35.6,479.7,35.2,479.1,34.9z"/>
	<path class="st10" d="M441,46.9l0.1,0.1l0.3,0.2c0.2,0.1,0.3,0.2,0.5,0.3c0.2,0.1,0.5,0.3,0.8,0.4c1.7,0.8,3.5,1.1,5.3,1
		c2.7-0.2,5.3-1.1,7.4-2.7c2.6-2,4.8-4.5,6.4-7.4c0.9-1.5,1.6-3,2.4-4.4c0.7-1.4,1.7-2.6,2.8-3.8c1-1,2.2-1.8,3.6-2.2
		c0.6-0.2,1.2-0.2,1.9-0.2c0.6,0,1.2,0.1,1.7,0.3c1,0.3,1.8,0.8,2.6,1.5c0.6,0.5,1,1.1,1.4,1.8c0.3,0.6,0.5,1.2,0.6,1.9
		c0,0,0,0,0-0.1s0-0.2,0-0.4c-0.1-0.5-0.3-0.9-0.5-1.4c-0.4-0.7-0.9-1.3-1.5-1.9c-0.7-0.7-1.6-1.3-2.6-1.6c-0.6-0.2-1.2-0.3-1.8-0.4
		c-0.7,0-1.3,0-2,0.2c-1.4,0.4-2.6,1.2-3.7,2.2c-1.1,1.1-2.1,2.4-2.8,3.8c-0.8,1.4-1.5,3-2.4,4.4c-1.6,2.8-3.7,5.3-6.3,7.3
		c-2.1,1.6-4.7,2.6-7.3,2.8c-1.8,0.1-3.6-0.1-5.2-0.8C442.1,47.6,441.6,47.3,441,46.9z"/>
	<path class="st10" d="M439.9,41.5c0.1,0.1,0.3,0.2,0.4,0.3c0.4,0.3,0.9,0.5,1.3,0.7c0.7,0.3,1.4,0.5,2.1,0.7
		c1.7,0.4,3.6,0.5,5.3,0.2c0.7-0.1,1.4-0.3,2.1-0.5c0.5-0.2,0.9-0.4,1.4-0.6c0.2-0.1,0.3-0.2,0.5-0.3c0,0-0.7,0.3-1.9,0.7
		c-0.7,0.2-1.4,0.4-2.1,0.5c-0.9,0.1-1.7,0.2-2.6,0.2c-0.9,0-1.7-0.1-2.6-0.3c-0.7-0.1-1.4-0.4-2.1-0.6
		C440.6,41.8,439.9,41.5,439.9,41.5z"/>
	<path class="st6" d="M450,60.1c0.2,0.2,1.7-0.9,3.7-1s3.6,1,3.8,0.7s-0.1-0.6-0.8-1c-0.9-0.6-2-0.9-3.1-0.9c-1.1,0-2.1,0.4-3,1.1
		C450,59.5,449.8,60,450,60.1z"/>
	<path class="st6" d="M451.1,64.2c0.1,0.9,0.8,1.6,1.7,1.6c0.9,0,1.6-0.7,1.6-1.6c0,0,0,0,0-0.1c-0.1-0.9-0.8-1.6-1.7-1.6
		C451.9,62.5,451.1,63.3,451.1,64.2C451.1,64.2,451.1,64.2,451.1,64.2z"/>
	<path class="st10" d="M441.8,110l-44.6,29.2L370,118l-8.5,13.4c0,0,15.8,18.3,21.7,24.5s9.8,9.5,14.4,8.9s43.2-15.6,43.2-15.6
		l5.9-40.9l-2.5,0.6C443.4,109.1,442.5,109.5,441.8,110z"/>
	<path class="st10" d="M491.5,100c-10,6.3-20,8.6-30.2,4.6l-15.3,3.9l-7.4,12.9c-1.2,2-1.7,4.4-1.5,6.7l3,49.5l-9,31.5l88.3,0.8
		l-4.3-23.4l-11-84L491.5,100z"/>
	<path class="st10" d="M505,140.2l-2.8-37.9c0,0,20.8,1.9,27.7,16.6c5.8,12.4,23.2,48.3,24.9,53.4c5,14.9-4.2,36.7-36.6,35.5
		l-3.7-20.3L505,140.2z"/>
	<path class="st6" d="M521.7,171.8c0.1,0.5,0.3,1,0.5,1.5c0.4,0.9,0.9,2.1,1.5,3.5l1.6,3.5c0.2,0.5,0.4,1,0.7,1.4
		c-0.1-0.5-0.3-1-0.5-1.5c-0.3-0.9-0.9-2.1-1.5-3.5s-1.1-2.5-1.6-3.5C522.1,172.7,521.9,172.2,521.7,171.8z"/>
	<path class="st6" d="M510.1,141.9c0.1,0,0.1-2.4,0.1-5.4s-0.1-5.4-0.1-5.4s-0.1,2.4-0.1,5.4S510.1,141.9,510.1,141.9z"/>
	<path class="st6" d="M513.2,125.8c0.1-0.2,0.2-0.4,0.2-0.6c0.1-0.4,0.3-1,0.5-1.6c0.6-1.8,1.4-3.5,2.3-5.1c0.9-1.6,2.1-3.1,3.3-4.5
		c0.5-0.5,0.9-1,1.2-1.2c0.2-0.1,0.3-0.3,0.4-0.4c-0.2,0.1-0.3,0.2-0.5,0.4c-0.4,0.4-0.9,0.8-1.2,1.2c-2.6,2.7-4.6,6-5.7,9.7
		c-0.2,0.5-0.3,1.1-0.4,1.7C513.2,125.4,513.2,125.6,513.2,125.8z"/>
	<path class="st6" d="M439.9,123.4c0.1,0.4,0.1,0.8,0.1,1.2c0,0.8,0.1,2,0,3.4c0,2.9-0.3,6.8-0.7,11.1c-0.3,3.7-0.5,7.4-0.4,11.1
		c0,1.4,0.1,2.6,0.1,3.4c0,0.4,0,0.8,0,1.2c-0.1-0.4-0.2-0.8-0.2-1.2c-0.1-0.8-0.2-1.9-0.3-3.4c-0.1-3.7,0-7.5,0.3-11.2
		c0.4-4.4,0.7-8.3,0.8-11.1c0.1-1.4,0.1-2.6,0.1-3.4C439.7,124.3,439.8,123.9,439.9,123.4z"/>
	<path class="st6" d="M534.9,178.8c-0.5,0.3-0.9,0.6-1.4,0.8c-0.9,0.5-2.2,1.2-3.9,2.2s-3.5,2.1-5.7,3.3c-1.1,0.6-2.3,1.1-3.5,1.7
		l-3.9,1.6l-1.2,0.5l0.2-0.3c0.8,5.4,1.6,10.2,2.1,13.6c0.2,1.7,0.4,3.1,0.6,4.1c0.1,0.5,0.1,1,0.1,1.5c-0.1-0.5-0.3-1-0.3-1.5
		c-0.2-1.1-0.4-2.4-0.7-4.1c-0.6-3.5-1.4-8.3-2.2-13.6v-0.2l0.2-0.1l1.2-0.5l3.9-1.6c1.2-0.5,2.4-1.1,3.5-1.6
		c2.2-1.1,4.1-2.3,5.8-3.2s3-1.6,4-2.1c0.5-0.2,0.8-0.4,1.1-0.5S534.9,178.7,534.9,178.8z"/>
	<path class="st6" d="M539.6,172.3c0,0.1-1,0.3-2.7,0.9c-2.1,0.8-4.1,1.9-5.8,3.4c-1.7,1.4-3.2,3.1-4.4,5.1
		c-0.9,1.5-1.3,2.5-1.4,2.4c0-0.3,0.1-0.5,0.2-0.7c0.2-0.7,0.5-1.3,0.9-1.9c2.3-4.1,6-7.1,10.4-8.6c0.7-0.2,1.3-0.4,2-0.5
		C539.1,172.3,539.3,172.2,539.6,172.3z"/>
	<path class="st9" d="M506,209.5l21.7-52.4c1-2.4-0.2-4.3-2.8-4.3h-4.4c-1.8,0-3-1-3.1-2.5l-0.2-1.9c-0.1-1.5-1.3-2.5-3.1-2.5h-20.8
		c-1.8,0.1-3.5,0.8-4.8,2.1l-1.7,1.6c-1.3,1.3-3,2-4.8,2.1h-26.4c-2.7,0.2-5.2,1.8-6.3,4.3l-21.5,53.4L506,209.5z"/>
	<g class="st3">
		<path d="M506,209.5l21.7-52.4c1-2.4-0.2-4.3-2.8-4.3h-4.4c-1.8,0-3-1-3.1-2.5l-0.2-1.9c-0.1-1.5-1.3-2.5-3.1-2.5h-20.8
			c-1.8,0.1-3.5,0.8-4.8,2.1l-1.7,1.6c-1.3,1.3-3,2-4.8,2.1h-26.4c-2.7,0.2-5.2,1.8-6.3,4.3l-21.5,53.4L506,209.5z"/>
	</g>
	<path class="st0" d="M509.5,191.7l8.2-31.6c0.5-2.1-0.8-4.2-2.7-4.2h-64.1c-1.3,0.1-2.5,1-2.7,2.4l-11.9,47.6
		c-0.5,2.1,0.3,3.4,2.2,3.3H503c1.3-0.1,2.4-1,2.7-2.3L509.5,191.7z"/>
	<path class="st1" d="M505.1,208l3.5-49.8c0.1-1.7-1.2-3.1-2.8-3.3c-0.1,0-0.1,0-0.2,0h-66.5V208H505.1z"/>
	<path class="st4" d="M505.9,209.2l-7.9-51.4c-0.4-1.7-1.9-2.9-3.6-2.9h-67.3c-2,0-3.7,1.6-3.7,3.6c0,0.5,0.1,1,0.3,1.5l14.5,47
		L505.9,209.2z"/>
	<path class="st9" d="M506,209.4l-16.3-48.1c-0.6-2-2.5-3.3-4.5-3.4h-69.4c-1.9,0.1-3.3,1.6-3.3,3.5c0,0.3,0.1,0.7,0.2,1l15.2,47
		L506,209.4z"/>
	<g class="st3">
		<path d="M472.4,201.4c0,0,2.6,0.1,3.8,0.2c5.8,0.4,11.6-0.6,16.8-3c1.6-0.7,3.4-1.8,3.9-3.5c0.5-1.9-0.7-3.9-2.2-5.2
			s-3.4-2.2-4.7-3.7s-1.9-3.9-0.6-5.5l0.4,0.3c0.9,2.4,3.5,3.5,5.7,4.9c4.1,2.6,7.1,6.5,8.5,11.1c0.8,2.5,1,5.4-0.5,7.5
			c-1.2,1.4-2.8,2.5-4.5,3c-5.2,2-10.9,2-16.5,2c-1.8,0-7.2-0.1-7.2-0.1c-1.7-0.5-2.3-1.4-3.3-2.8S471.2,202.4,472.4,201.4z"/>
	</g>
	<path class="st7" d="M472.4,201.4l18.1-2.7l7-4c0.9-0.5,1.5-1.5,1.6-2.6V192c0-1.3-0.8-2.6-2-3.1c-2.2-0.9-5.8-2.2-7.3-4.8
		c-2.2-3.8,0-4.6,0-4.6l15.1,6l10.7,7.3l2.2,12.2l-14.9,4.9c0,0-16.6,0.9-21.2,0.4s-4.6-2.6-4.6-2.6c-0.9-0.3-2.6-1.8-2.6-3.2
		C472.3,202.4,472.4,201.4,472.4,201.4"/>
	<path class="st8" d="M495.6,206.6c-0.3,0-0.5,0.1-0.8,0.1c-0.5,0.1-1.2,0.3-2,0.4c-2.2,0.4-4.5,0.7-6.7,0.8c-2.3,0.1-4.5,0-6.8-0.3
		c-0.9-0.1-1.6-0.2-2-0.3c-0.2-0.1-0.5-0.1-0.8-0.1c0.2,0.1,0.5,0.2,0.7,0.2c0.5,0.1,1.2,0.2,2,0.4c4.5,0.7,9.1,0.5,13.6-0.5
		c0.9-0.2,1.5-0.4,2-0.5C495.1,206.8,495.3,206.7,495.6,206.6z"/>
	<path class="st8" d="M493.9,203.8c-0.3,0-0.5,0.1-0.8,0.1c-0.5,0.1-1.2,0.3-2,0.4c-2.3,0.4-4.5,0.7-6.8,0.8c-2.3,0.1-4.6,0-6.9-0.3
		c-0.9-0.1-1.6-0.2-2.1-0.3c-0.2-0.1-0.5-0.1-0.8-0.1c0.2,0.1,0.5,0.2,0.7,0.2c0.5,0.1,1.2,0.2,2.1,0.4c2.3,0.3,4.6,0.5,6.9,0.4
		c2.3-0.1,4.6-0.3,6.9-0.9c0.7-0.1,1.3-0.3,2-0.5C493.4,204,493.7,203.9,493.9,203.8z"/>
</g>
<g id="freepik--character-2--inject-3">
	<rect x="152.3" y="291.9" class="st5" width="227.6" height="169"/>
	<path class="st6" d="M379.9,460.9c0-1.8-0.1-66.7-0.2-169l0.2,0.2l-227.5,0l0,0l0.3-0.3c0,60.7,0,118.2,0,169l-0.2-0.2L379.9,460.9
		l-227.5,0.2h-0.2v-0.2c0-50.8,0-108.3,0-169v-0.3h0.3l227.5,0h0.2v0.2C379.9,394.2,379.9,459.1,379.9,460.9z"/>
	<path class="st0" d="M379.9,314.3c0,0.1-51,0.3-113.8,0.3s-113.8-0.1-113.8-0.3s50.9-0.3,113.8-0.3S379.9,314.2,379.9,314.3z"/>
	<circle class="st0" cx="161.9" cy="302" r="3.4"/>
	<circle class="st0" cx="172" cy="302" r="3.4"/>
	<circle class="st0" cx="182.1" cy="302" r="3.4"/>
	<path class="st11" d="M354.8,426.9c0,0,5.5-7.3,8.2-7.5s19,0.3,21.2,0s15.2-5.8,15.2-5.8s2.3,0.8,2,2.8s-14.6,9.8-16.4,10.1
		s-15.5,1.3-15.5,1.3l-3.5,6.2L354.8,426.9z"/>
	<path class="st6" d="M307.2,335.4c4.4-2,6.4-7.1,4.4-11.5c-0.7-1.5-1.7-2.7-3-3.6l-10.1-3.4c-1.5,13-3,26-4.6,39
		c2.7,0,5.4-0.7,7.7-2.1c2.2-1.5,3.7-4.5,2.9-7c3.6-1.2,5.5-5.1,4.3-8.7C308.5,337,307.9,336.1,307.2,335.4L307.2,335.4z"/>
	<path class="st11" d="M257.8,327.7l0.4-4.6l28.3-2.5c8.7,0,17,9.5,16.7,18.1c-0.4,9.6-1.2,21.3-3.1,28.3
		c-3.7,14.1-14.9,14.8-14.9,14.8l-1,14.2c-0.8,8.3-7.9,9.4-16.2,8.6l0,0c-8.1-0.7-14.1-7.7-13.7-15.9L257.8,327.7z"/>
	<path class="st6" d="M298.7,349c-0.1,1-1,1.8-2,1.7c-1,0-1.7-0.9-1.7-1.8c0,0,0,0,0,0c0.1-1,1-1.8,2-1.7
		C298,347.2,298.7,348,298.7,349C298.7,349,298.7,349,298.7,349z"/>
	<path class="st6" d="M299.5,344.6c-0.2,0.2-1.5-1-3.5-1.1s-3.5,0.6-3.7,0.4s0.2-0.5,0.9-0.9c0.9-0.5,2-0.7,3-0.6
		c1,0.1,2,0.5,2.8,1.2C299.5,344,299.6,344.5,299.5,344.6z"/>
	<path class="st6" d="M280.2,347.8c-0.1,1-1,1.8-2,1.7c-1,0-1.8-0.8-1.7-1.8c0,0,0,0,0,0c0.1-1,1-1.8,2-1.7
		C279.5,346,280.2,346.8,280.2,347.8C280.2,347.8,280.2,347.8,280.2,347.8z"/>
	<path class="st6" d="M280,342.9c-0.2,0.2-1.5-1-3.5-1.1s-3.5,0.6-3.7,0.4s0.2-0.5,0.9-0.9c0.9-0.5,2-0.7,3-0.6c1,0.1,2,0.5,2.8,1.2
		C280,342.4,280.2,342.9,280,342.9z"/>
	<path class="st6" d="M285.7,358.3c1.1-0.2,2.2-0.3,3.3-0.3c0.5,0,1,0,1.1-0.4c0.1-0.5,0-1.1-0.2-1.5l-1.1-4
		c-1.5-5.7-2.6-10.3-2.3-10.4s1.6,4.5,3.2,10.2l1,4c0.3,0.6,0.3,1.3,0.1,2c-0.2,0.3-0.5,0.6-0.9,0.6c-0.3,0-0.6,0-0.9,0
		C287.9,358.7,286.8,358.6,285.7,358.3z"/>
	<path class="st12" d="M285.2,382c-6.9-0.6-13.5-3.1-19.1-7.2c0,0,3.8,10.5,18.8,10.7L285.2,382z"/>
	<path class="st6" d="M281.1,337.4c-0.2,0.5-2.2,0.1-4.5,0.1s-4.3,0.5-4.5,0c-0.1-0.2,0.3-0.7,1.1-1.2c1.1-0.5,2.3-0.8,3.5-0.8
		c1.2,0,2.4,0.2,3.5,0.8C280.8,336.7,281.2,337.2,281.1,337.4z"/>
	<path class="st6" d="M300.2,337.8c-0.4,0.4-1.7-0.2-3.4-0.4s-3,0-3.3-0.5c-0.1-0.2,0.1-0.7,0.8-1c1.8-0.9,3.9-0.6,5.4,0.7
		C300.2,337.1,300.3,337.6,300.2,337.8z"/>
	<path class="st6" d="M309.5,326.5c3.1-1.8,4.8-5.3,4.4-8.8c-0.6-4.3-3.9-7.7-8.2-8.5c-1.3-0.9-2.8-1.5-4.3-1.7
		c-0.2-1.9-1.5-3.5-3.3-4.1c-1.8-0.6-3.7-0.7-5.5-0.3c-2.8-4.4-8.6-5.6-13-2.8c-0.8,0.5-1.5,1.2-2.1,1.9c-3.4-2.5-8.2-1.8-10.8,1.6
		c-0.4,0.6-0.8,1.2-1,1.9c-2.1-0.2-4.2,0.6-5.7,2c-1.2,1.4-2.2,2.9-3.1,4.5c-4.8,0-8.6,3.9-8.6,8.7c0,2.5,1.2,4.9,3.1,6.6
		c-3.4,2.7-4,7.7-1.2,11.1c0.5,0.6,1,1.1,1.7,1.6c-1.1,2.6-1.1,5.4,0,8c0.4,1.1,1.2,2,2.3,2.6c0,0.2,0.1,0.4,0.2,0.6
		c0.7,1.4,2.9,1.1,4.2,0.2c3.3-2.1,5.3-5.7,6.5-9.4s1.9-7.6,3.1-11.2l0.1-0.3c0.5-1.5,1.4-2.9,2.5-4.1c1,0.9,2.1,1.8,3.2,2.5
		c4.3,2.6,9.8,2.1,13.5-1.3c2.7,2.8,6.4,4.6,10.2,5c3.9,0.4,7.7,0.1,11-2.1c0.8-0.6,1.5-1.3,1.9-2.2
		C310.7,327.6,310.3,326.8,309.5,326.5z"/>
	<path class="st11" d="M258.2,346.9c-0.2-0.1-7.4-3.7-8.6,4.1s6.9,7.4,7,7.1S258.2,346.9,258.2,346.9z"/>
	<path class="st12" d="M254.6,354.8c0,0-0.1,0.1-0.4,0.1c-0.3,0.1-0.7,0-1-0.1c-0.8-0.4-1.3-1.8-1.1-3.3c0.1-0.7,0.3-1.3,0.7-1.9
		c0.2-0.5,0.7-0.8,1.2-0.9c0.3,0,0.6,0.2,0.8,0.5c0.1,0.2,0,0.4,0,0.4s0.2-0.1,0.2-0.4c0-0.2-0.1-0.4-0.2-0.5
		c-0.2-0.2-0.4-0.3-0.7-0.3c-0.7,0-1.3,0.4-1.6,1c-0.4,0.6-0.7,1.4-0.8,2.1c-0.2,1.6,0.4,3.2,1.5,3.7c0.4,0.2,0.9,0.2,1.3,0
		C254.6,355,254.6,354.8,254.6,354.8z"/>
	<path class="st10" d="M313.6,316.3c0,0.1,0,0.1,0,0.2c0,0.2,0.1,0.4,0.1,0.6c0,0.7-0.1,1.5-0.3,2.2c-0.4,1.1-1.1,2.1-2,2.9
		c-1.3,1-2.8,1.4-4.4,1.2l0.1-0.1c-0.7,2.5-2.1,4.7-4,6.4c-1.1,1-2.4,1.7-3.8,2.2c-1.5,0.5-3.1,0.5-4.6,0.1
		c-1.5-0.3-2.9-0.9-4.2-1.6c-1.3-0.7-2.4-1.5-3.4-2.6h0.2c-2,1.6-4.5,2.6-7,2.9c-2,0.1-4-0.3-5.8-1.2c-1.2-0.6-2.2-1.4-3.2-2.3
		c-0.2-0.2-0.5-0.5-0.7-0.8c-0.1-0.1-0.2-0.2-0.2-0.3c0,0,0.3,0.4,1,1c0.9,0.9,2,1.6,3.2,2.2c1.8,0.9,3.8,1.2,5.7,1.1
		c2.5-0.3,4.8-1.3,6.8-2.9l0.1-0.1l0.1,0.1c0.9,1,2,1.9,3.3,2.5c1.3,0.7,2.7,1.3,4.1,1.6c1.5,0.4,3,0.3,4.4-0.1
		c1.3-0.4,2.6-1.2,3.6-2.1c1.9-1.7,3.3-3.8,4-6.2v-0.1h0.1c1.5,0.2,3-0.2,4.2-1.1c0.9-0.7,1.6-1.6,2-2.7c0.2-0.7,0.4-1.4,0.4-2.1
		C313.7,316.6,313.6,316.3,313.6,316.3z"/>
	<path class="st10" d="M258,311.9c-0.4,0.8-0.7,1.7-1,2.6c-0.6,2.4-0.5,4.9,0.4,7.1l0,0.1l-0.1,0.1c-1.1,0.7-1.9,1.7-2.5,2.9
		c-0.6,1.3-0.8,2.7-0.6,4.2c0.3,1.8,1.3,3.5,2.8,4.6l0.1,0.1l-0.1,0.1c-0.9,1.4-1.5,3.1-1.5,4.8c-0.1,1.4,0.2,2.7,0.6,4
		c0.5,1.1,1.1,2.1,1.9,3.1c-0.1,0-0.1-0.1-0.2-0.2c-0.2-0.2-0.3-0.3-0.5-0.5c-0.6-0.7-1-1.5-1.4-2.3c-0.5-1.3-0.8-2.6-0.7-4
		c0-1.8,0.6-3.5,1.5-5v0.2c-1.6-1.2-2.7-2.9-3-4.8c-0.3-1.5,0-3,0.6-4.4c0.6-1.2,1.5-2.3,2.6-3l-0.1,0.2c-0.9-2.3-1-4.9-0.3-7.3
		c0.2-0.7,0.5-1.3,0.8-1.9c0.1-0.2,0.2-0.4,0.3-0.5S258,311.9,258,311.9z"/>
	<path class="st6" d="M252.4,357.3c-0.2,0.4-0.3,0.9-0.3,1.4c0,0.5,0.1,1,0.4,1.4c0.4,0.5,1,0.7,1.6,0.7c0.6-0.1,1-0.6,1.1-1.2
		c0.1-0.5,0.1-1-0.1-1.5c-0.3-0.8-0.6-1.3-0.5-1.4c0.3,0.4,0.6,0.8,0.7,1.3c0.2,0.5,0.3,1.1,0.2,1.6c-0.1,0.3-0.2,0.6-0.4,0.9
		c-0.3,0.3-0.6,0.5-1,0.5c-0.7,0.1-1.4-0.2-1.9-0.8c-0.3-0.5-0.5-1-0.4-1.6C251.9,358.2,252.1,357.7,252.4,357.3z"/>
	<path class="st12" d="M280.6,360.7c-1.5,1.3-1.7,3.6-0.4,5.1c0.3,0.3,0.6,0.6,1,0.8c0.4,0.2,0.9,0.4,1.3,0.3
		c0.8-0.1,1.4-0.9,1.8-1.5l1.1-1.7c0.2-0.2,0.2-0.4,0.2-0.6c-0.1-0.2-0.3-0.4-0.5-0.5l-4.4-2.1"/>
	<path class="st6" d="M282.5,366.7c-0.7-0.1-1.4-0.3-2-0.7c-0.7-0.4-1.3-1.1-1.5-1.9c-0.1-0.5-0.1-1,0-1.5c0.3-1,0.9-1.9,1.8-2.4
		l0.1-0.1l0.1,0.1c2.8,1.7,5.1,2.8,5,2.9c-1.9-0.5-3.7-1.4-5.3-2.4h0.3c-0.4,0.2-0.7,0.5-1,0.9c-1,1.1-1,2.7,0.1,3.7
		c0.1,0.1,0.3,0.3,0.5,0.4C281.7,366.3,282.5,366.6,282.5,366.7z"/>
	<path class="st10" d="M177.9,460.9c0,0,28.4-51,33.2-59.2c5.6-9.7,10.4-13.2,14.8-15.3c4.6-2.2,9.6-3.3,14.7-3.3l14.1-0.1
		c0,0,5.4,8,12.6,9.6c10,2.2,17.5-5.3,17.5-5.3l20.3,8.3L301,433c-1,9.4-4.5,18.4-10,26.2l-1.3,1.7l-74.7-0.1l8.7-27l-16,27
		L177.9,460.9z"/>
	<path class="st10" d="M305.1,395.6c0,0,5.9,3.5,10.3,17.8s14,39.9,14,39.9l24-27.2l14.2,9c0,0-23,39.9-26.6,44.6
		c-5.4,7-19.2,11.1-27.3,1.7c-5.9-6.8-19.9-39.7-19.9-39.7L305.1,395.6z"/>
	<path class="st6" d="M296.5,416.4c0,0,0.1,0.1,0.2,0.4s0.3,0.7,0.5,1.3c0.6,1.6,1.1,3.2,1.5,4.9c2.7,11,0.9,22.7-4.9,32.4
		c-0.9,1.5-1.8,2.8-2.9,4.2c-0.4,0.5-0.7,0.8-0.9,1s-0.3,0.4-0.4,0.4c0.3-0.5,0.7-1,1.1-1.5c1-1.4,1.9-2.8,2.7-4.2
		c5.6-9.7,7.4-21.2,4.9-32.1c-0.4-1.6-0.8-3.3-1.4-4.9C296.8,417.6,296.6,417,296.5,416.4z"/>
	<path class="st6" d="M228.3,411.8c0,0.2,0,0.3,0,0.5c-0.1,0.4-0.1,0.9-0.2,1.5c-0.2,1.3-0.5,3.1-0.9,5.4
		c-0.8,4.6-2.2,10.8-4.1,17.7s-3.9,12.9-5.5,17.3c-0.8,2.2-1.5,3.9-2,5.1l-0.6,1.4c-0.1,0.2-0.1,0.3-0.2,0.5c0-0.2,0.1-0.3,0.1-0.5
		c0.1-0.4,0.3-0.8,0.5-1.4l1.8-5.2c1.5-4.4,3.5-10.5,5.4-17.3s3.3-13,4.2-17.6l1.1-5.4l0.3-1.5C228.2,412.1,228.2,412,228.3,411.8z"
		/>
	<path class="st11" d="M192.6,460.9c0,0,2.7-3.7,4.1-4.4s3.2-0.7,4,0l0.8,0.7c0,0,4.2-1.9,6.2-0.4c0,0,4-1.9,5.9,0.3
		c0,0,3.1-2,4.4-0.3s1.2,4.7,0.5,6.2s-1.8,6.7-2.7,6.8c0,0-2.5,0.3-2.8-1.1s-0.5-2-0.5-2s-0.9,4.7-2.1,4.9s-3.3,0.1-3.4-2
		c0,0-1.1,1.6-2.1,1.1s-2.3-1.2-2.2-2.5s0.1-2.5,0.1-2.5s-0.6,1.9-1.5,1.5s-1.9-0.3-2.4-1.9s-1.8-4.6-1.8-4.6L192.6,460.9z"/>
	<path class="st12" d="M202.9,465.8c-0.1,0,0.2-0.5,0.4-1.3c0.3-1.1,0.3-2.2,0.1-3.3c-0.2-1.1-0.7-2.1-1.3-3c-0.5-0.7-0.9-1-0.9-1.1
		c0.4,0.2,0.8,0.5,1.1,0.9c0.8,0.9,1.3,2,1.5,3.1c0.2,1.1,0.1,2.3-0.3,3.4C203.4,465,203.2,465.5,202.9,465.8z"/>
	<path class="st12" d="M207.9,456.9c0.3,0.6,0.5,1.2,0.5,1.9c0.6,3.1,0.4,6.3-0.6,9.2c-0.2,0.6-0.4,1.2-0.8,1.8
		c0.6-2.1,1.1-4.2,1.3-6.4C208.4,461.2,208.3,459,207.9,456.9z"/>
	<path class="st12" d="M213.7,457.2c0.3,1.7,0.3,3.3,0.1,5c-0.1,1.7-0.5,3.3-1.2,4.8c-0.1,0,0.5-2.2,0.8-4.9
		S213.6,457.2,213.7,457.2z"/>
	<path class="st11" d="M229.5,458.2c-0.2-0.4-0.6-0.7-1.1-0.9c-1.1-0.2-2.2,0.1-3.1,0.8c-0.9,0.8-1.6,1.7-2.2,2.8h6
		C229,460,229.8,459.1,229.5,458.2z"/>
	<path class="st9" d="M383.8,375.3h32.1c0,17.7-14.4,32.1-32.1,32.1c-17.7,0-32.1-14.4-32.1-32.1c0-17.7,14.3-32.1,32-32.1
		L383.8,375.3z"/>
	<path class="st9" d="M389.5,370.1l-0.1-32.1h0.1c17.6,0.1,31.9,14.3,32.1,31.9L389.5,370.1z"/>
</g>
<g id="freepik--character-1--inject-3">
	<path class="st7" d="M202.6,168.7c3.7,1.4,6.7,4.1,8.6,7.5c3.2,5.7,2.4,8.6,1.5,11.9s-2.3,10.1-2.4,9.7S202.6,168.7,202.6,168.7z"
		/>
	<rect x="66.1" y="98.9" class="st5" width="232.9" height="173"/>
	<path class="st6" d="M299,271.8c0-1.8-0.1-68.3-0.2-173L299,99L66.1,99.1l0,0l0.3-0.3c0,62.1,0,121,0,173l-0.2-0.2L299,271.8
		l-232.8,0.2h-0.3v-0.2c0-52,0-110.8,0-173v-0.2h0.3H299h0.2v0.2C299.1,203.6,299,270.1,299,271.8z"/>
	<path class="st0" d="M298.6,123c0,0.1-51.6,0.3-115.3,0.3S68.1,123.2,68.1,123s51.6-0.3,115.3-0.3S298.6,122.9,298.6,123z"/>
	<path class="st0" d="M81.4,110.4c0,1.9-1.5,3.4-3.4,3.4c-1.9,0-3.4-1.5-3.4-3.4c0-1.9,1.5-3.4,3.4-3.4c0,0,0,0,0,0
		C79.8,107,81.4,108.5,81.4,110.4z"/>
	<path class="st0" d="M91.7,110.4c0,1.9-1.5,3.4-3.4,3.4c-1.9,0-3.4-1.5-3.4-3.4c0-1.9,1.5-3.4,3.4-3.4c0,0,0,0,0,0
		C90.2,107,91.7,108.5,91.7,110.4z"/>
	<path class="st0" d="M102,110.4c0,1.9-1.5,3.4-3.4,3.4c-1.9,0-3.4-1.5-3.4-3.4c0-1.9,1.5-3.4,3.4-3.4c0,0,0,0,0,0
		C100.5,107,102,108.5,102,110.4z"/>
	<path class="st6" d="M195,95c-0.8-2.8-2.3-5.6-4.8-7c-1.2-0.7-2.6-1.1-3.8-1.7c-1.4-0.9-2.8-1.9-4.1-2.9
		c-6.6-4.5-15.6-2.9-20.1,3.6c-0.4,0.5-0.7,1.1-1,1.7c-2.8-2.2-7.8-1.2-11.1,0s-6.2,5.2-7,8.7l15.8,4.6c3.1,3.5,6.7,6.5,10.8,8.9
		c4.1,2.3,8.8,3.3,13.5,2.7c4.7-0.6,8.8-3.4,11.1-7.6C195.8,102.5,196.1,98.6,195,95z"/>
	<path class="st6" d="M206.2,147.1c4.1-3.1,5-8.8,2-13c-0.9-1.1-2.1-2.2-2.3-3.6c0-0.9,0.1-1.8,0.4-2.6c1.4-5.9-0.9-12.1-5.7-15.8
		c-0.1-3.2-1.9-10.1-6-12.7l-18.6,2.6c0.8,19.6,0.8,39.2-0.2,58.9c-0.1,3-0.3,6.2,1.4,8.8c2.3,3.6,7.2,4.3,11.4,4.4
		c4.1,0.3,8.2-0.2,12.1-1.4c3.9-1.4,7.4-4,9-7.8C212.2,159.1,209.6,152.4,206.2,147.1z"/>
	<path class="st7" d="M149.4,107.5l-0.6-4.2l24.6-7.7c7.6-1.7,16.9,5.1,18.3,12.8c1.5,8.6,3.1,19.1,2.8,25.7
		c-0.6,13.2-10.3,16-10.3,16l1,7.8c1,7.9-4.6,15.2-12.5,16.2l0,0c-7.9,1-15.1-4.6-16.2-12.4L149.4,107.5z"/>
	<path class="st6" d="M190,118.1c0.1,0.9-0.5,1.7-1.4,1.9c-0.9,0.2-1.7-0.4-1.9-1.3c0,0,0,0,0,0c-0.1-0.9,0.5-1.7,1.4-1.9
		C189,116.7,189.8,117.2,190,118.1C190,118.1,190,118.1,190,118.1z"/>
	<path class="st6" d="M189.6,114.3c-0.2,0.2-1.6-0.6-3.3-0.3s-3,1.3-3.2,1.1s0.1-0.5,0.6-1c0.7-0.6,1.6-1,2.5-1.1
		c0.9-0.1,1.9,0.1,2.7,0.5C189.5,113.8,189.7,114.2,189.6,114.3z"/>
	<path class="st6" d="M173.3,120.4c0.1,0.9-0.5,1.7-1.4,1.9c-0.9,0.2-1.7-0.4-1.9-1.2c0,0,0,0,0-0.1c-0.1-0.9,0.5-1.7,1.4-1.9
		C172.3,118.9,173.1,119.5,173.3,120.4C173.3,120.4,173.3,120.4,173.3,120.4z"/>
	<path class="st6" d="M172.1,116.6c-0.2,0.2-1.6-0.5-3.3-0.3s-3,1.2-3.2,1s0-0.5,0.6-1c0.7-0.6,1.6-1,2.5-1.1
		c0.9-0.1,1.9,0.1,2.7,0.5C171.9,116.1,172.2,116.5,172.1,116.6z"/>
	<path class="st6" d="M180.1,129.1c0.9-0.4,1.9-0.7,2.9-0.9c0.4-0.1,0.9-0.2,0.9-0.6c0-0.5-0.2-0.9-0.5-1.3
		c-0.6-1.1-1.1-2.2-1.8-3.3c-2.4-4.7-4.3-8.7-4.1-8.8s2.3,3.7,4.8,8.4l1.7,3.3c0.4,0.5,0.5,1.1,0.4,1.8c-0.1,0.3-0.3,0.6-0.7,0.8
		c-0.2,0.1-0.5,0.2-0.8,0.2C182.1,129,181.1,129.1,180.1,129.1z"/>
	<path class="st8" d="M184.2,150.1c-6.2,0.8-12.6-0.1-18.3-2.6c0,0,5.4,8.6,18.7,5.8L184.2,150.1z"/>
	<path class="st8" d="M179.8,133.5c-0.8-0.8-1.9-1.1-3-0.9c-0.8,0.2-1.5,0.6-1.9,1.3c-0.4,0.7-0.4,1.5,0.1,2.1
		c0.7,0.6,1.6,0.7,2.4,0.3c0.8-0.4,1.5-1,2.1-1.6c0.2-0.2,0.3-0.4,0.4-0.6c0.1-0.2,0.1-0.5-0.1-0.7"/>
	<path class="st6" d="M175,131c0.3,0,0.5,1.9,2.3,3.1s3.9,0.7,3.9,1c0,0.1-0.4,0.4-1.3,0.6c-1.1,0.1-2.3-0.1-3.2-0.7
		c-0.9-0.6-1.6-1.5-1.8-2.6C174.7,131.5,174.8,131,175,131z"/>
	<path class="st6" d="M171.7,109.6c-0.1,0.5-1.9,0.5-4,1s-3.7,1.3-4,0.9c-0.1-0.2,0.1-0.7,0.7-1.2c0.8-0.7,1.8-1.2,2.9-1.4
		c1.1-0.3,2.2-0.3,3.2,0C171.3,109,171.8,109.3,171.7,109.6z"/>
	<path class="st6" d="M188.4,109.2c-0.3,0.4-1.6,0.2-3,0.3s-2.7,0.6-3,0.2c-0.1-0.2,0-0.6,0.5-1.1c1.4-1.1,3.3-1.3,4.9-0.4
		C188.2,108.5,188.5,109,188.4,109.2z"/>
	<path class="st6" d="M152.2,94.5c-2.6,0.8-5.4,7.8-4.7,10.4c0.9,2.6,3.1,4.5,5.7,5.1c2.6,0.6,5.4,0.4,7.9-0.5
		c3.6-1.1,7.5-3.6,7.7-7.4c3.7,3.6,8.9,5,13.9,3.8c4.9-1.2,8.5-8.7,9.8-13.5L152.2,94.5z"/>
	<path class="st10" d="M177.3,120.5c-0.1,0,0-0.7-0.3-1.8c-0.4-1.6-1.4-3-2.7-3.9c-3.1-2.4-7.6-1.8-10,1.3c-1.9,2.5-2,6-0.1,8.6
		c1.6,2.2,4.3,3.3,7,2.8c1.1-0.2,2.1-0.6,3-1.3c1.3-1,2.2-2.4,2.7-3.9C177.3,121.1,177.2,120.5,177.3,120.5c0,0.2,0,0.3-0.1,0.5
		c0,0.5-0.1,0.9-0.2,1.3c-0.7,2.9-2.9,5.1-5.8,5.6c-1.3,0.3-2.7,0.2-4-0.3c-1.4-0.5-2.7-1.4-3.5-2.6c-2-2.7-2-6.3,0-9
		c1.7-2.3,4.7-3.5,7.5-2.9c2.9,0.6,5.2,2.8,5.8,5.6c0.1,0.4,0.2,0.9,0.2,1.3C177.3,120.2,177.3,120.3,177.3,120.5z"/>
	<path class="st10" d="M195.7,117.2c-0.1,0,0-0.7-0.3-1.8c-0.4-1.6-1.4-3-2.7-3.9c-1.9-1.5-4.5-1.8-6.8-1c-1.3,0.5-2.5,1.3-3.3,2.5
		c-2.3,3.2-1.6,7.6,1.6,9.9c0.5,0.4,1.1,0.7,1.8,0.9c3.7,1.4,7.9-0.6,9.3-4.3c0.1-0.2,0.1-0.4,0.2-0.6
		C195.7,117.8,195.7,117.2,195.7,117.2c0.1,0.2,0.1,0.3,0,0.5c0,0.5-0.1,0.9-0.2,1.3c-0.7,2.9-2.9,5.1-5.8,5.6
		c-2.9,0.6-5.8-0.6-7.5-2.9c-2-2.7-2-6.3,0-9c0.9-1.2,2.1-2.1,3.5-2.6c1.3-0.5,2.7-0.6,4-0.3c2.9,0.6,5.2,2.8,5.8,5.6
		c0.1,0.4,0.2,0.9,0.2,1.3C195.8,116.9,195.8,117,195.7,117.2z"/>
	<path class="st10" d="M176.2,116.4c-0.1,0-0.1-0.3,0.2-0.8c0.7-1.3,2.3-1.8,3.6-1.1c0.5,0.3,0.7,0.6,0.6,0.6s-0.3-0.1-0.8-0.2
		c-0.6-0.2-1.2-0.2-1.8,0c-0.6,0.2-1.1,0.5-1.4,1C176.4,116.2,176.3,116.5,176.2,116.4z"/>
	<path class="st10" d="M162.4,122.2c-0.9,0.6-1.8,1-2.8,1.2c-1,0.4-2,0.7-3,0.7C158.4,123.2,160.3,122.5,162.4,122.2L162.4,122.2z"
		/>
	<path class="st7" d="M289.8,144.6c1.2-0.5,1.8-1.8,1.3-3c0,0,0-0.1,0-0.1l-8,2.4c2.3-0.9,4.4-2.1,6.4-3.5c2.2-1.8,1.1-3.3,1.1-3.3
		l-8.2,3.2l-4.7,2.7L266,160.8c0,0,9.1,4.4,10.7,3.2c2.8-2.3,4.4-7.3,5-9.9c2-0.5,3.9-1.2,5.7-2c0.7-0.5,1.3-1.2,1.7-1.9l-6.3,1.2
		c0.9-0.3,6.8-2.3,7.3-3c0.8-1.3,0.3-1.8,0.3-1.8l-8,1.2l0.8-0.6C283.2,147.2,287.7,145.4,289.8,144.6z"/>
	<path class="st7" d="M260.4,163.1l-26.8,24.6c-3.3-0.8-44.1-25.2-44.1-25.2l-6.5,31.4c0,0,41.8,19.2,53.3,16.9
		c1.9-0.4,5-0.6,6.9-3.1c9.2-11.8,28.7-41.1,28.7-41.1L260.4,163.1z"/>
	<path class="st7" d="M278.6,161.9l-4.8-2.3l3.5-6.3l2.7-5.8l4.2-7.9l-6.5,2.4c-0.8,0.3-1.5,0.8-2,1.5l-10.6,14.7l-4.7,4.8l4.5,12.3
		l5.4-8.4l3.1-0.7C276.7,165.4,278.6,161.9,278.6,161.9z"/>
	<path class="st7" d="M270.9,152c2.2-1.1,4.5-2,6.9-2.7c0.8-0.3,1.6-0.4,2.4-0.3c0.8,0.1,1.5,0.6,1.8,1.4c0.2,0.9-0.3,1.9-1.1,2.3
		c-0.8,0.4-1.7,0.8-2.6,0.9c-0.9,0.2-1.8,0.6-2.4,1.3c-0.5,0.7-0.8,1.5-1,2.4c-1,2.7-3.3,4.7-6.2,5.3"/>
	<path class="st8" d="M268.7,162.5c0,0,0.4-0.1,1.2-0.4c1-0.4,2-1,2.8-1.8c0.6-0.5,1-1.1,1.4-1.8c0.4-0.8,0.8-1.6,1-2.5
		c0.2-0.5,0.4-1,0.7-1.4c0.4-0.4,0.8-0.7,1.3-0.9c1-0.4,2.1-0.5,3-0.9c0.5-0.2,0.9-0.5,1.2-0.9c0.3-0.4,0.5-0.8,0.5-1.3
		c-0.2-0.9-1-1.6-1.9-1.6c-0.9,0-1.7,0.1-2.6,0.4c-0.8,0.2-1.6,0.5-2.2,0.7c-1.4,0.5-2.4,0.9-3.2,1.2c-0.4,0.2-0.8,0.3-1.2,0.5
		c0.3-0.3,0.7-0.5,1.1-0.6c0.7-0.4,1.8-0.9,3.1-1.4c0.7-0.3,1.4-0.5,2.2-0.8c0.9-0.3,1.8-0.5,2.7-0.5c0.5,0,1,0.2,1.5,0.5
		c0.5,0.3,0.8,0.9,0.8,1.4c-0.1,1.2-0.9,2.2-2,2.6c-1.1,0.4-2.1,0.5-3.1,0.9c-0.4,0.2-0.8,0.5-1.2,0.8c-0.3,0.4-0.5,0.8-0.6,1.2
		c-0.2,0.9-0.6,1.7-1,2.5c-0.4,0.7-0.9,1.3-1.5,1.9c-0.8,0.8-1.9,1.4-3,1.8c-0.3,0.1-0.6,0.2-0.9,0.2
		C268.8,162.5,268.7,162.6,268.7,162.5z"/>
	<path class="st6" d="M186.4,250.9h-55c-5.1,6.5-9.6,13.5-13.4,20.9l78.3,0.3C197.9,269.5,186.4,250.9,186.4,250.9z"/>
	<path class="st9" d="M202.7,200.9c-1.9-24.6-8-40.1-8-40.1l-9.5-2.9l0,0c-1.4,6.3-11.7,8.4-17.5,5.6l-6.2-3.2
		c-19.8-3-18.8-1.3-23.4,1.4c-4,2.4-3.6,20.2-3.6,20.2s-9.9,46.5-9.3,53.9s6.3,15,6.3,15h55c5.5,0,7.1-12.5,6.7-17.1
		S203.3,209,202.7,200.9z"/>
	<path class="st6" d="M150.5,216.4c0.3,0.3,0.6,0.6,0.9,0.8c0.9,0.6,1.8,1.2,2.8,1.7c1.5,0.7,3.1,1.2,4.7,1.4c2,0.3,4,0.2,6-0.3
		c3.6-0.9,6.8-2.8,9.3-5.4c0.8-0.8,1.5-1.6,2.1-2.5c0.3-0.3,0.5-0.6,0.6-1c-0.1-0.1-1.1,1.3-3.1,3.2c-2.6,2.5-5.7,4.2-9.2,5.1
		c-3.5,0.8-7.1,0.4-10.4-1C151.9,217.4,150.6,216.3,150.5,216.4z"/>
	<g class="st3">
		<path d="M176.1,212.3c-0.4,4.2-2.4,8.1-5.6,10.8c-3.3,2.7-7.7,3.6-11.8,2.6c-4.1-1.2-7.2-4.6-8-8.7c2.8,1.4,5.7,2.4,8.8,3.1
			c6.7,0.9,13.4-2.2,16.9-8l-0.4,0.5"/>
	</g>
	<path class="st9" d="M113.4,199.8l27.7,13c0,0,11.3-25,12.3-28.4s4-8.8,0.9-15.9s-11.5-9.7-16.1-6.7
		C127.8,168.5,113.4,199.8,113.4,199.8z"/>
	<path class="st9" d="M200.5,201.1c1.3,0,16.1,7.8,16.1,7.8l8.5-28c-12.6-8.4-23-18-30.4-20l3.9,23.1L200.5,201.1z"/>
	<path class="st6" d="M113.4,199.8c0.2,0,0.4,0.1,0.6,0.2l1.5,0.6l5.6,2.5l18.4,8.4l2.2,1l-0.4,0.1c3.2-6.6,6-12.5,8-16.7l2.3-5
		c0.2-0.6,0.4-1,0.6-1.4c0.1-0.2,0.1-0.3,0.2-0.5c0,0.2-0.1,0.3-0.2,0.5c-0.1,0.3-0.3,0.8-0.5,1.4c-0.5,1.2-1.2,2.9-2.2,5.1
		c-1.9,4.3-4.6,10.2-7.8,16.8l-0.1,0.2l-0.2-0.1l-2.2-1l-18.3-8.5l-5.5-2.6l-1.5-0.8C113.8,200,113.6,199.9,113.4,199.8z"/>
	<path class="st6" d="M198,178.1c0.2,0.6,0.4,1.1,0.6,1.7c0.4,1.2,0.9,2.8,1.5,4.7c1.2,4,3,9.6,3,16c-0.1,3-0.6,6-1.5,8.9
		c-0.8,2.7-1.7,5-2.4,7s-1.4,3.5-1.9,4.6c-0.2,0.6-0.5,1.1-0.8,1.7c0-0.2,0.1-0.3,0.1-0.5c0.1-0.4,0.3-0.8,0.4-1.3
		c0.4-1.2,1-2.7,1.7-4.6s1.6-4.3,2.3-7c0.8-2.9,1.3-5.8,1.4-8.8c-0.1-6.4-1.8-11.9-2.9-15.9c-0.6-2-1-3.6-1.3-4.8
		c-0.1-0.6-0.2-1-0.3-1.3C198,178.4,198,178.2,198,178.1z"/>
	<path class="st6" d="M174.5,172.5c-0.6-4.1-2.5-7.9-5.5-10.7c-1.4-1.4-3.2-2.9-3.4-4.9c-0.4-2.6,1.9-5,1.5-7.7
		c-0.4-3.3-4.5-4.7-6-7.6c-2-4,1.4-9.1-0.6-13c-1.3-2.3-4.3-3.6-4.9-6.2c-0.4-1.7,2.8-4.1,3.6-7.8c1.7-8.2,2.5-14.5-5.4-19.3
		l-4.6-6.4c-5.2,2.5-9.6,8.2-9.7,14.2c-0.1,2.8,1.4,5.7,0.2,8.2c-1.7,3.5-5.7,5.7-6.9,9.5c-1.7,5.4,3,11.4,1,16.6
		c-1.2,3.1-4.4,4.9-6.5,7.5c-3.2,4.4-2.9,10.3,0.7,14.3c-5.1,3.6-7.3,10.2-5.4,16.1c0.8,2.4,2.7,4.8,5.3,5c3.7,0.2,5.8-4,8.4-6.5
		c4.5-3.9,11.2-3.7,15.4,0.4c2.8,2.9,4,7.3,7.2,9.7s8.2,2,11.4-0.6C173.5,180.8,175.1,176.7,174.5,172.5z"/>
	<path class="st7" d="M138.4,211c-5.2,8.6-8.9,13.6-8.9,13.6l47,28.6l-5.5,12.7l-61-25.1c0,0-6-6.2-3.9-13.1l9.7-26.8L138.4,211z"/>
	<path class="st8" d="M118.1,228.9c0.1,0.1,2.3-1.7,5.6-2.9s6.2-1.3,6.2-1.5C125.5,224.3,121.2,225.9,118.1,228.9z"/>
	<path class="st7" d="M213,261.9l-11.7-5.6l-22.9-1.8l-1.9-1.3l-5.5,12.7c0,0,6,2.9,9.1,3.1l19.2-0.6l10.1,1L213,261.9z"/>
	<path class="st0" d="M279,216.7l-66,0.5c-2.1,0-4.2,1-4.5,3.1l-7.2,48.1h-34c-1.1,0-2,0.9-2,2s0.9,2,2,2h108.6l7.4-50.8
		c0.4-2.4-1.2-4.6-3.6-5C279.5,216.8,279.2,216.7,279,216.7z"/>
	<path class="st6" d="M279,216.7c0.3,0,0.7,0,1,0.1c1,0.2,1.9,0.8,2.5,1.7c0.5,0.6,0.7,1.3,0.8,2.1c0,0.9-0.1,1.8-0.2,2.7
		c-0.3,1.9-0.6,4.2-1,6.7c-1.5,10.1-3.5,24.6-6.1,42.5v0.2h-0.2l-105.3,0.1h-2.8c-0.5,0.1-1,0-1.5-0.3c-1.1-0.6-1.5-2-0.9-3.1
		c0.2-0.4,0.5-0.7,0.9-0.9c0.5-0.2,1-0.3,1.5-0.3h33.6l-0.2,0.2c2.6-17.2,5-33.3,7.2-47.7c0.1-1,0.5-1.9,1.2-2.5
		c0.7-0.6,1.6-1,2.5-1.1c0.9-0.1,1.8-0.1,2.7-0.1h2.6l9.9-0.1l17.6-0.1l25.1-0.1h8.5C278.8,216.7,279,216.7,279,216.7l-0.6,0h-1.7
		l-6.7,0.1l-25.1,0.3l-17.6,0.2l-9.9,0.1h-2.6c-0.9,0-1.7,0-2.6,0.1c-0.8,0.1-1.6,0.5-2.3,1c-0.6,0.6-1,1.4-1.1,2.2
		c-2.1,14.4-4.6,30.5-7.1,47.7v0.2h-33.8c-0.4,0-0.8,0-1.2,0.2c-0.8,0.5-1.1,1.5-0.7,2.3c0.2,0.3,0.4,0.5,0.7,0.7
		c0.4,0.2,0.8,0.3,1.2,0.2h2.8l105.3,0.1l-0.2,0.2c2.6-17.9,4.8-32.4,6.3-42.5c0.4-2.5,0.7-4.8,1-6.7c0.2-0.9,0.3-1.8,0.3-2.7
		c-0.2-1.8-1.5-3.2-3.2-3.6C279.7,216.8,279.3,216.8,279,216.7z"/>
	<circle class="st5" cx="243.2" cy="244" r="4.1"/>
	<path class="st6" d="M204,272c0.1,0,2.2-12.2,4.7-27.4c2.5-15.1,4.4-27.4,4.4-27.4s-2.2,12.2-4.7,27.4S203.9,272,204,272z"/>
</g>
<g id="freepik--speech-bubbles--inject-3">
	<path class="st4" d="M469.3,282.6l-12.6-0.3c-7.5-14.4-25.3-20.1-39.8-12.5c-14.4,7.5-20.1,25.3-12.5,39.8
		c7.5,14.4,25.3,20.1,39.8,12.5c10.9-5.7,17.1-17.5,15.7-29.7l0,0L469.3,282.6z"/>
	<path class="st6" d="M469.3,282.6l-9.5,9.9l-0.1,0.1l0-0.1l0,0l0.2,0c0.3,2.3,0.3,4.7,0,7.1c-0.3,2.8-1.1,5.5-2.2,8.1
		c-0.6,1.4-1.3,2.8-2.2,4.1c-0.5,0.7-0.9,1.4-1.4,2s-1,1.3-1.6,2c-5,5.6-12,9.1-19.5,9.7c-4.2,0.4-8.4-0.2-12.3-1.6
		c-4.2-1.5-7.9-3.9-11.1-7c-3.3-3.3-5.7-7.2-7.2-11.6l-0.5-1.7c-0.2-0.6-0.3-1.2-0.4-1.7c-0.1-0.6-0.2-1.2-0.3-1.7l-0.2-1.8
		c-0.1-0.6-0.1-1.2-0.1-1.8c0-0.6,0-1.2,0-1.8l0.1-1.7c0-0.6,0.1-1.2,0.2-1.7c0.7-4.4,2.4-8.7,5-12.4c2.4-3.5,5.6-6.4,9.3-8.6
		c6.6-3.8,14.5-5,21.9-3.2c3.1,0.8,6.1,2.1,8.9,3.8c2.4,1.5,4.5,3.4,6.4,5.5c1.5,1.8,2.8,3.7,3.9,5.8h-0.1L469.3,282.6l-12.6-0.1h0
		l0,0c-1.1-2.1-2.4-4-3.9-5.7c-1.8-2.1-4-3.9-6.3-5.4c-2.7-1.7-5.7-3-8.8-3.8c-7.4-1.7-15.1-0.6-21.7,3.2c-3.6,2.1-6.8,5-9.2,8.5
		c-2.6,3.6-4.3,7.8-5,12.2c-0.1,0.6-0.2,1.1-0.2,1.7c0,0.6-0.1,1.1-0.1,1.7s0,1.1,0,1.7c0,0.6,0,1.2,0.1,1.7l0.2,1.7
		c0.1,0.6,0.2,1.2,0.3,1.7c0.1,0.6,0.2,1.2,0.4,1.7l0.5,1.7c1.4,4.3,3.8,8.3,7.1,11.5c3.1,3.1,6.8,5.5,10.9,6.9
		c3.9,1.4,8.1,1.9,12.2,1.6c7.4-0.6,14.4-4,19.4-9.6l1.6-1.9c0.5-0.7,0.9-1.4,1.4-2c0.8-1.3,1.6-2.7,2.2-4.1c1.1-2.6,1.8-5.2,2.2-8
		c0.3-2.3,0.3-4.7,0-7l-0.1-0.7l0.2,0.6l0,0h-0.1L469.3,282.6z"/>
	<path class="st6" d="M421.8,295.2c0,1.7-1.3,3-3,3s-3-1.3-3-3s1.3-3,3-3S421.8,293.5,421.8,295.2z"/>
	<path class="st6" d="M433.8,295.2c0,1.7-1.3,3-3,3s-3-1.3-3-3s1.3-3,3-3S433.8,293.5,433.8,295.2z"/>
	<path class="st6" d="M445.7,293.7c0.8,1.4,0.4,3.3-1.1,4.1c-1.4,0.8-3.3,0.4-4.1-1.1c-0.8-1.4-0.4-3.3,1.1-4.1c0,0,0,0,0,0
		C443,291.8,444.9,292.3,445.7,293.7z"/>
	<path class="st4" d="M236.2,361.9l-6.2-11c8.5-13.9,4.2-32-9.7-40.6c-13.9-8.5-32-4.2-40.6,9.7c-8.5,13.9-4.2,32,9.7,40.6
		c10.5,6.4,23.8,5.7,33.5-1.8l0,0L236.2,361.9z"/>
	<path class="st6" d="M236.2,361.9l-13.4-3h-0.1l0.1-0.1l0,0l0.1,0.1c-4.1,3.2-9,5.3-14.1,6c-1.5,0.2-3.1,0.3-4.7,0.2
		c-0.8,0-1.6-0.1-2.4-0.1l-2.5-0.4c-7.4-1.5-14-5.7-18.4-11.8c-2.5-3.4-4.2-7.3-5-11.4c-0.8-4.3-0.7-8.8,0.4-13.1
		c1.1-4.5,3.3-8.6,6.3-12.1l1.2-1.3c0.4-0.5,0.9-0.8,1.3-1.2s0.9-0.8,1.3-1.2l1.4-1c0.5-0.4,1-0.7,1.5-1l1.5-0.9l1.6-0.8
		c0.5-0.3,1-0.5,1.6-0.7c4.2-1.6,8.7-2.3,13.2-2c4.3,0.3,8.4,1.5,12.1,3.6c6.7,3.7,11.7,9.9,14,17.2c0.9,3.1,1.3,6.3,1.3,9.6
		c-0.1,2.8-0.6,5.6-1.4,8.3c-0.7,2.2-1.8,4.4-3,6.3V351C234,358,235.9,361.5,236.2,361.9l-6.4-10.9v0l0,0c1.2-2,2.2-4.1,2.9-6.3
		c0.9-2.7,1.3-5.4,1.4-8.2c0.1-3.2-0.4-6.4-1.3-9.5c-2.3-7.2-7.2-13.3-13.9-17c-3.7-2-7.8-3.2-12-3.5c-4.4-0.3-8.9,0.4-13,2
		c-0.5,0.2-1.1,0.4-1.6,0.7l-1.6,0.8l-1.5,0.9c-0.5,0.3-1,0.6-1.4,1l-1.4,1c-0.5,0.4-0.9,0.7-1.3,1.1c-0.4,0.4-0.9,0.8-1.3,1.2
		l-1.2,1.3c-3,3.4-5.1,7.6-6.2,12c-1.1,4.2-1.2,8.7-0.4,12.9c0.8,4.1,2.5,7.9,4.9,11.3c4.4,6.1,10.9,10.3,18.2,11.7l2.5,0.4
		c0.8,0.1,1.6,0.1,2.4,0.1c1.5,0.1,3.1,0,4.6-0.2c2.8-0.4,5.5-1.1,8-2.2c2.1-1,4.1-2.2,6-3.6l0.6-0.4l-0.4,0.5l0,0l-0.1-0.1
		L236.2,361.9z"/>
	<path class="st6" d="M196.6,335.5c0,1.7-1.3,3-3,3s-3-1.3-3-3s1.3-3,3-3S196.6,333.8,196.6,335.5z"/>
	<path class="st6" d="M208.6,335.5c0,1.7-1.3,3-3,3s-3-1.3-3-3s1.3-3,3-3S208.6,333.8,208.6,335.5z"/>
	<path class="st6" d="M220.5,334c0.8,1.4,0.3,3.3-1.1,4.1c-1.4,0.8-3.3,0.3-4.1-1.1c-0.8-1.4-0.3-3.3,1.1-4.1c0,0,0,0,0,0
		C217.9,332.1,219.7,332.6,220.5,334z"/>
</g>
</svg>
